<svg width="1478" height="139" viewBox="0 0 1478 139" xmlns="http://www.w3.org/2000/svg"><title>Fill 7</title><defs><linearGradient x1="67.773%" y1="0%" x2="67.773%" y2="100%" id="a"><stop stop-color="#C6C5C5" offset="0%"/><stop stop-color="#E0E0E0" offset="100%"/></linearGradient></defs><path d="M324.699 115.239c33.388-15.35 59.86-61.588 97.515-75.34 82.566-30.155 151.684 76.26 195.978 97.742 16.976 8.233 65.841-45.87 111.138-48.555 34.294-2.034 65.256 16.696 89.472 34.352 39.112 28.517 66.43 32.375 120.131 31.273 56.526-1.161 188.329-68.045 279.922-68.045 137.428 0 259.006 86.334 259.006 86.334H0s116.807-138.442 254.584-66.516c28.99 15.134 36.727 24.105 70.115 8.755z" transform="translate(0 -34)" fill="url(#a)" fill-rule="evenodd" opacity=".7"/></svg>