<svg width="59" height="66" viewBox="0 0 59 66" xmlns="http://www.w3.org/2000/svg"><title>Group 4</title><defs><linearGradient x1="50%" y1="0%" x2="50%" y2="100%" id="a"><stop stop-color="#C5C5C5" offset="0%"/><stop stop-color="#939393" offset="100%"/></linearGradient></defs><g fill="none" fill-rule="evenodd"><path d="M26.777 44.163c1.081-.379 2.175-.689 3.343-.645.298.01.604.042.898.12.63.167.797.61.476 1.197-.287.522-.692.928-1.143 1.265a9.76 9.76 0 0 1-4.698 1.88c-.263.032-.545-.003-.814-.051-1.01-.173-1.294-1.509-.784-2.174.282-.369.646-.61 1.035-.803.557-.28 1.124-.527 1.687-.79" fill="url(#a)" opacity=".817" transform="rotate(22 30.302 45.253)"/><path d="M54.979 31.37C58.033 16.696 47.17 3.856 35.216 1.474 20.422-1.484 5.422 7.634 1.211 22.495c-2.076 7.31-1.44 14.59 1.576 21.476 3.323 7.571 9.805 10.556 17.416 11.5 1.438.177 2.897.156 3.848.198 15.93.05 27.924-9.833 30.928-24.298z" fill="#F1EFEF"/><path d="M54.857 60.903c-6.218 5.328-15.655 5.99-21.948 1.314-1.849-1.366-3.36-3.059-3.788-5.466-.58-3.142.95-5.654 4.044-6.4 1.38-.346 2.827-.44 4.249-.61.878-.094 1.766-.104 2.645-.188 5.607-.495 6.698-1.471 7.64-7.022.388-2.217.95-4.317 2.473-6.062 1.528-1.776 3.38-1.987 5-.305.887.934 1.756 2.059 2.184 3.269 1.966 5.549 2.168 11.201.225 16.792-.591 1.672-1.804 3.122-2.724 4.678M7.953 56.36c-2.453-2.326-4.719-4.783-6.025-7.923-.336-.801-.62-1.653-.746-2.535-.28-1.892.827-2.947 2.964-2.911 1.902.034 3.604.54 5.16 1.263 4.837 2.267 8.615 5.55 11.358 9.79.416.65.658 1.442.847 2.218.73 2.903-2.884 5.5-5.486 5.078-1.441-.235-2.604-.862-3.657-1.62-1.512-1.084-2.944-2.237-4.415-3.36m34.455-21.377c-5.525.017-9.685-3.347-10.727-8.27-1.06-4.995 2.708-9.366 6.854-10.177 5.132-1.006 10.334 2.098 11.795 7.156.72 2.488.5 4.966-.547 7.31-1.152 2.577-3.4 3.593-6.04 3.914-.5.06-1.005.053-1.335.067m7.883-29.584C51.777 6.92 53.157 8.518 54 10.516c.216.51.404 1.05.501 1.606.214 1.19-.4 1.82-1.639 1.74-1.104-.074-2.104-.436-3.025-.93a18.118 18.118 0 0 1-6.85-6.43c-.26-.417-.421-.919-.552-1.41-.502-1.834 1.523-3.36 3.043-3.025.842.186 1.533.61 2.164 1.112.906.719 1.767 1.478 2.65 2.22M16.625 34.748c5.382.017 9.434-3.26 10.449-8.056 1.032-4.865-2.638-9.122-6.677-9.912-4.998-.98-10.065 2.043-11.488 6.97-.701 2.423-.486 4.837.533 7.12 1.122 2.51 3.312 3.5 5.883 3.812.486.06.979.052 1.3.066M6.185 5.399C4.699 6.92 3.319 8.518 2.477 10.516c-.216.51-.404 1.05-.501 1.606-.214 1.19.4 1.82 1.639 1.74 1.104-.074 2.104-.436 3.025-.93a18.118 18.118 0 0 0 6.85-6.43c.26-.417.421-.919.551-1.41.503-1.834-1.522-3.36-3.042-3.025-.842.186-1.533.61-2.164 1.112-.906.719-1.768 1.478-2.65 2.22m19.371 36.388c-.2.14-.393.303-.546.508-.332.438-.174.95.413 1.394a4.501 4.501 0 0 0 1.575.763c1.623.43 3.096.37 4.416-.162.201-.083.374-.24.53-.404.592-.607-.04-2.057-.806-2.498a2.67 2.67 0 0 0-1.215-.35c-.558-.036-1.104-.037-1.656-.055-.982.091-1.931.256-2.711.804z" fill="#282727"/></g></svg>