<svg width="22" height="22" viewBox="0 0 22 22" xmlns="http://www.w3.org/2000/svg"><title>Path + iconfont-xuanze (2)</title><g fill="none" fill-rule="evenodd"><path d="M11 21.183c-5.493 0-9.965-4.47-9.965-9.966 0-5.495 4.471-9.964 9.965-9.964 5.495 0 9.965 4.469 9.965 9.964 0 5.496-4.47 9.966-9.965 9.966zm-.07-18.754c-4.808 0-8.719 3.911-8.719 8.718 0 4.81 3.91 8.72 8.719 8.72 4.808 0 8.719-3.91 8.719-8.72 0-4.807-3.911-8.718-8.72-8.718z" stroke="#231F20" fill="#231F20"/><path d="M16.341 8.417l-6.74 6.74c-.133.134-.364.119-.516-.033l-.451-.452-3.02-3.02a.388.388 0 0 1 0-.549l.823-.824a.388.388 0 0 1 .55 0l2.373 2.374 5.608-5.608c.133-.133.364-.118.516.033l.823.824c.152.152.167.382.034.515z" stroke="#021215" fill="#021215"/></g></svg>