<?xml version="1.0" encoding="UTF-8" standalone="no"?>
<svg width="32px" height="31px" viewBox="0 0 32 31" version="1.1" xmlns="http://www.w3.org/2000/svg" xmlns:xlink="http://www.w3.org/1999/xlink">
    <!-- Generator: Sketch 3.8.3 (29802) - http://www.bohemiancoding.com/sketch -->
    <title>@COLLECTION_idea</title>
    <desc>Created with Sketch.</desc>
    <defs>
        <filter x="-50%" y="-50%" width="200%" height="200%" filterUnits="objectBoundingBox" id="filter-1">
            <feOffset dx="0" dy="3" in="SourceAlpha" result="shadowOffsetOuter1"></feOffset>
            <feGaussianBlur stdDeviation="1.5" in="shadowOffsetOuter1" result="shadowBlurOuter1"></feGaussianBlur>
            <feColorMatrix values="0 0 0 0 0   0 0 0 0 0   0 0 0 0 0  0 0 0 0.5 0" type="matrix" in="shadowBlurOuter1" result="shadowMatrixOuter1"></feColorMatrix>
            <feMerge>
                <feMergeNode in="shadowMatrixOuter1"></feMergeNode>
                <feMergeNode in="SourceGraphic"></feMergeNode>
            </feMerge>
        </filter>
    </defs>
    <g id="Page-1" stroke="none" stroke-width="1" fill="none" fill-rule="evenodd">
        <g id="iPhone-6-Copy-5" transform="translate(-304.000000, -221.000000)">
            <g id="@COLLECTION_idea" filter="url(#filter-1)" transform="translate(307.000000, 221.000000)">
                <path d="M9.659325,8.87674632 C9.255675,8.30670956 8.7451,7.80165441 8.137025,7.39632353 C7.341425,6.86553309 6.345625,6.58115809 5.333575,6.58115809 C4.6969,6.58115809 4.0534,6.69407169 3.4502,6.92890625 C3.081325,5.36355699 3.363425,3.73226103 4.29195,2.31553309 C5.28385,0.802297794 6.919575,0.115808824 8.51695,0.115808824 C9.562475,0.115808824 10.591425,0.409512868 11.413675,0.957674632 C11.85795,1.25395221 12.25185,1.60170037 12.5918,1.98837316 C12.48195,2.12444853 12.3773,2.2676011 12.2785,2.41847426 C11.169925,4.10992647 10.8992,6.08028493 11.47445,7.93354779 C10.850775,8.16452206 10.241725,8.47849265 9.659325,8.87674632" id="Fill-1" fill="#28BDBD" opacity="0.854361007"></path>
                <path d="M19.209775,9.47058824 C18.920525,9.18460478 18.594225,8.92178309 18.2299,8.68759191 C16.952325,7.86727941 15.5363,7.45615809 14.1115,7.45615809 C14.046825,7.45615809 13.98215,7.45680147 13.917475,7.45873162 C14.4144,5.54563419 13.9035,3.47876838 12.5918,1.98837316 C13.694525,0.624080882 15.32635,0 16.9234,0 C18.072275,0 19.2036,0.322977941 20.1071,0.925505515 C22.750975,2.68901654 23.7757,6.11181066 22.55175,8.97196691 C22.190025,8.87256434 21.809775,8.82109375 21.426275,8.82109375 C20.656025,8.82109375 19.87375,9.02890625 19.209775,9.47058824" id="Fill-2" fill="#28BDBD" opacity="0.854361007"></path>
                <path d="M11.47445,7.93354779 C10.8992,6.08028493 11.169925,4.10992647 12.2785,2.41847426 C12.3773,2.2676011 12.48195,2.12444853 12.5918,1.98837316 C13.9035,3.47876838 14.4144,5.54563419 13.917475,7.45873162 C13.095875,7.47996324 12.272975,7.63823529 11.47445,7.93354779" id="Fill-3" fill="#198296"></path>
                <path d="M5.589675,17.9375 C4.5942,17.9375 3.681925,17.4954963 2.830425,16.834421 C2.603575,16.6581342 2.4011,16.4512868 2.26135,16.3251838 C0.010725,14.1119485 -0.31915,11.0964154 1.244425,8.71043199 C1.80895,7.84894301 2.58895,7.26443015 3.4502,6.92890625 C3.7232,8.08795956 4.3537,9.21098346 5.342675,10.1834559 C5.4873,10.3140625 5.696275,10.5279871 5.930925,10.7100643 C6.317025,11.0098805 6.71515,11.2659467 7.12725,11.4592831 C6.2803,12.7869026 5.92475,14.2329044 6.5429,15.8445772 C6.767475,16.4300551 7.048275,16.9756434 7.3853,17.4758732 C7.215975,17.556296 7.04145,17.6302849 6.86205,17.6978401 C6.422975,17.8628676 5.999175,17.9375 5.589675,17.9375" id="Fill-4" fill="#28BDBD" opacity="0.854361007"></path>
                <path d="M7.12725,11.4592831 C6.71515,11.2659467 6.317025,11.0098805 5.930925,10.7100643 C5.696275,10.5279871 5.4873,10.3140625 5.342675,10.1834559 C4.3537,9.21098346 3.7232,8.08795956 3.4502,6.92890625 C4.0534,6.69407169 4.6969,6.58115809 5.333575,6.58115809 C6.345625,6.58115809 7.341425,6.86553309 8.137025,7.39632353 C8.7451,7.80165441 9.255675,8.30670956 9.659325,8.87674632 C9.19685,9.19264706 8.75095,9.56130515 8.3278,9.98304228 C8.163675,10.1609375 7.894575,10.4192555 7.66545,10.7081342 C7.470125,10.9545496 7.28975,11.2045037 7.12725,11.4592831" id="Fill-5" fill="#198296"></path>
                <path d="M13.608075,20.7863971 C12.395825,20.7863971 11.17415,20.4975184 10.0542,19.8882353 C8.94465,19.2847426 8.054475,18.4686121 7.3853,17.4758732 C8.5124,16.9399357 9.41655,16.1128676 10.036325,14.9972426 C10.6704,13.855239 10.862475,12.5749081 10.669425,11.3569853 C11.37565,11.016636 11.996075,10.5649816 12.516725,10.0023438 C12.782575,10.3713235 13.088075,10.7274357 13.43355,11.0668199 C13.59215,11.2102941 13.82225,11.4454504 14.079975,11.6455423 C15.047175,12.3963695 16.083275,12.8985294 17.214275,12.8985294 C17.2796,12.8985294 17.345575,12.8965993 17.41155,12.8933824 C17.372225,14.1814338 17.89515,15.4903952 18.9852,16.5622702 C19.09635,16.6623162 19.257225,16.8270221 19.4376,16.9669577 C19.6248,17.1123621 19.8159,17.2445772 20.0109,17.3597426 C19.987175,17.3960938 19.963125,17.4327665 19.93875,17.468796 C18.49185,19.5942096 16.069625,20.7863971 13.608075,20.7863971" id="Fill-6" fill="#28BDBD" opacity="0.854361007"></path>
                <path d="M10.669425,11.3569853 C10.529025,10.4716912 10.185175,9.61920956 9.659325,8.87674632 C10.241725,8.47849265 10.850775,8.16452206 11.47445,7.93354779 C11.6961,8.6480239 12.043525,9.34545037 12.516725,10.0023438 C11.996075,10.5649816 11.37565,11.016636 10.669425,11.3569853" id="Fill-7" fill="#198296"></path>
                <path d="M17.214275,12.8985294 C16.083275,12.8985294 15.047175,12.3963695 14.079975,11.6455423 C13.82225,11.4454504 13.59215,11.2102941 13.43355,11.0668199 C13.088075,10.7274357 12.782575,10.3713235 12.516725,10.0023437 C12.843675,9.64912684 13.1313,9.25215993 13.376025,8.81176471 C13.617825,8.37651654 13.797225,7.9222886 13.917475,7.45873162 C13.98215,7.45680147 14.046825,7.45615809 14.1115,7.45615809 C15.5363,7.45615809 16.952325,7.86727941 18.2299,8.68759191 C18.594225,8.92178309 18.920525,9.18460478 19.209775,9.47058824 C18.8149,9.73340993 18.46195,10.0789062 18.177575,10.5128676 C17.69235,11.2527574 17.4369,12.0685662 17.41155,12.8933824 C17.345575,12.8965993 17.2796,12.8985294 17.214275,12.8985294" id="Fill-8" fill="#198296"></path>
                <path d="M12.516725,10.0023437 C12.043525,9.34545037 11.6961,8.6480239 11.47445,7.93354779 C12.272975,7.63823529 13.095875,7.47996324 13.917475,7.45873162 C13.797225,7.9222886 13.617825,8.37651654 13.376025,8.81176471 C13.1313,9.25215993 12.843675,9.64912684 12.516725,10.0023437" id="Fill-9" fill="#1C5E76"></path>
                <path d="M7.3853,17.4758732 C7.048275,16.9756434 6.767475,16.4300551 6.5429,15.8445772 C5.92475,14.2329044 6.2803,12.7869026 7.12725,11.4592831 C7.6544,11.7060202 8.2043,11.8498162 8.781825,11.8498162 C9.20465,11.8498162 9.64275,11.7726103 10.09645,11.6017923 C10.2934,11.528125 10.484175,11.4464154 10.669425,11.3569853 C10.862475,12.5749081 10.6704,13.855239 10.036325,14.9972426 C9.41655,16.1128676 8.5124,16.9399357 7.3853,17.4758732" id="Fill-10" fill="#198296"></path>
                <path d="M8.781825,11.8498162 C8.2043,11.8498162 7.6544,11.7060202 7.12725,11.4592831 C7.28975,11.2045037 7.470125,10.9545496 7.66545,10.7081342 C7.894575,10.4192555 8.163675,10.1609375 8.3278,9.98304228 C8.75095,9.56130515 9.19685,9.19264706 9.659325,8.87674632 C10.185175,9.61920956 10.529025,10.4716912 10.669425,11.3569853 C10.484175,11.4464154 10.2934,11.528125 10.09645,11.6017923 C9.64275,11.7726103 9.20465,11.8498162 8.781825,11.8498162" id="Fill-11" fill="#1C5E76"></path>
                <path d="M21.6294,17.8432445 C21.0574,17.8432445 20.520175,17.6598805 20.0109,17.3597426 C21.06325,15.7329504 21.314475,13.4920496 20.57055,11.5599724 C21.2511,11.0230699 21.8218,10.3558824 22.264125,9.55905331 C22.37105,9.36668199 22.466925,9.17077206 22.55175,8.97196691 C22.948575,9.08102022 23.32265,9.24797794 23.653175,9.46865809 C25.631125,10.7875919 26.3133,13.4341452 25.16215,15.5074449 C24.596,16.5268842 23.7302,17.2432904 22.640475,17.6528033 C22.291425,17.7840533 21.954725,17.8432445 21.6294,17.8432445" id="Fill-12" fill="#28BDBD" opacity="0.854361007"></path>
                <path d="M20.57055,11.5599724 C20.276425,10.7962776 19.82695,10.0808364 19.209775,9.47058824 C19.87375,9.02890625 20.656025,8.82109375 21.426275,8.82109375 C21.809775,8.82109375 22.190025,8.87256434 22.55175,8.97196691 C22.466925,9.17077206 22.37105,9.36668199 22.264125,9.55905331 C21.8218,10.3558824 21.2511,11.0230699 20.57055,11.5599724" id="Fill-13" fill="#198296"></path>
                <path d="M20.0109,17.3597426 C19.8159,17.2445772 19.6248,17.1123621 19.4376,16.9669577 C19.257225,16.8270221 19.09635,16.6623162 18.9852,16.5622702 C17.89515,15.4903952 17.372225,14.1814338 17.41155,12.8933824 C17.8152,12.8724724 18.23055,12.7872243 18.659225,12.626057 C19.365775,12.3606618 20.006025,12.005193 20.57055,11.5599724 C21.314475,13.4920496 21.06325,15.7329504 20.0109,17.3597426" id="Fill-14" fill="#198296"></path>
                <path d="M17.41155,12.8933824 C17.4369,12.0685662 17.69235,11.2527574 18.177575,10.5128676 C18.46195,10.0789063 18.8149,9.73340993 19.209775,9.47058824 C19.82695,10.0808364 20.276425,10.7962776 20.57055,11.5599724 C20.006025,12.005193 19.365775,12.3606618 18.659225,12.626057 C18.23055,12.7872243 17.8152,12.8724724 17.41155,12.8933824" id="Fill-15" fill="#1C5E76"></path>
                <path d="M5.395975,24.9127298 C4.74825,24.7840533 4.180475,24.4289063 3.77715,23.8903952 C4.034225,23.857261 4.29065,23.7726563 4.534075,23.6259651 C4.987775,23.353171 5.3248,22.9674632 5.521425,22.5151654 C5.52825,22.5283548 5.535075,22.5415441 5.541575,22.5547335 C5.58805,22.648989 5.62185,22.7493566 5.64785,22.8130515 C5.92475,23.5889706 5.81165,24.3459099 5.395975,24.9127298" id="Fill-18" fill="#198296"></path>
                <path d="M3.525275,23.9064798 C2.95945,23.9064798 2.413125,23.6677849 2.02605,23.2965533 C2.13525,22.7982537 2.421575,22.3388787 2.864875,22.0261949 C3.061175,21.8878676 3.269825,21.7858915 3.488225,21.7196232 C3.24285,22.3247243 3.2409,23.0398438 3.629925,23.6732537 C3.676075,23.7485294 3.725475,23.8209099 3.77715,23.8903952 C3.6933,23.901011 3.609125,23.9064798 3.525275,23.9064798" id="Fill-20" fill="#198296"></path>
                <path d="M5.521425,22.5151654 C5.275725,22.037454 4.922125,21.6832721 4.3485,21.6340533 C4.277325,21.6279412 4.2068,21.625046 4.136925,21.625046 C3.913325,21.625046 3.696225,21.65625 3.488225,21.7196232 C3.682575,21.2390165 4.03065,20.8278952 4.457375,20.5808364 C4.757675,20.4074449 5.081375,20.2971048 5.410925,20.2475643 C5.41645,20.2581801 5.421975,20.268796 5.427175,20.2797335 C5.48015,20.3868566 5.5185,20.501057 5.548075,20.5740809 C5.795075,21.2653952 5.77005,21.9435202 5.521425,22.5151654" id="Fill-21" fill="#198296"></path>
                <path d="M3.77715,23.8903952 C3.725475,23.8209099 3.676075,23.7485294 3.629925,23.6732537 C3.2409,23.0398437 3.24285,22.3247243 3.488225,21.7196232 C3.696225,21.65625 3.913325,21.625046 4.136925,21.625046 C4.2068,21.625046 4.277325,21.6279412 4.3485,21.6340533 C4.922125,21.6832721 5.275725,22.037454 5.521425,22.5151654 C5.3248,22.9674632 4.987775,23.353171 4.534075,23.6259651 C4.29065,23.7726562 4.034225,23.857261 3.77715,23.8903952" id="Fill-22" fill="#1C5E76"></path>
            </g>
        </g>
    </g>
</svg>