<?xml version="1.0" encoding="UTF-8" standalone="no"?>
<svg width="67px" height="93px" viewBox="0 0 67 93" version="1.1" xmlns="http://www.w3.org/2000/svg" xmlns:xlink="http://www.w3.org/1999/xlink">
    <!-- Generator: Sketch 3.8.3 (29802) - http://www.bohemiancoding.com/sketch -->
    <title>Group 2</title>
    <desc>Created with Sketch.</desc>
    <defs>
        <filter x="-50%" y="-50%" width="200%" height="200%" filterUnits="objectBoundingBox" id="filter-1">
            <feOffset dx="0" dy="1" in="SourceAlpha" result="shadowOffsetOuter1"></feOffset>
            <feGaussianBlur stdDeviation="1" in="shadowOffsetOuter1" result="shadowBlurOuter1"></feGaussianBlur>
            <feColorMatrix values="0 0 0 0 0   0 0 0 0 0   0 0 0 0 0  0 0 0 0.5 0" type="matrix" in="shadowBlurOuter1" result="shadowMatrixOuter1"></feColorMatrix>
            <feMerge>
                <feMergeNode in="shadowMatrixOuter1"></feMergeNode>
                <feMergeNode in="SourceGraphic"></feMergeNode>
            </feMerge>
        </filter>
        <polygon id="path-2" points="0.0159018952 5.21934664 1.99836152 5.21934664 1.99836152 0.0184254606 0.0159018952 0.0184254606"></polygon>
    </defs>
    <g id="Page-1" stroke="none" stroke-width="1" fill="none" fill-rule="evenodd">
        <g id="iPhone-6-Copy-6" transform="translate(-41.000000, -301.000000)">
            <g id="Group-2" filter="url(#filter-1)" transform="translate(30.000000, 288.000000)">
                <path d="M45.4968421,70.5640824 C51.2719327,70.5640824 57.4547368,65.4771358 57.4547368,59.2020691 C57.4547368,52.9270025 52.101005,47.8400559 45.4968421,47.8400559 C38.8926792,47.8400559 33.5389474,52.9270025 33.5389474,59.2020691 C33.5389474,65.4771358 39.7217515,70.5640824 45.4968421,70.5640824 Z" id="Oval-1" fill="#D07C7C" opacity="0.889808769"></path>
                <path d="M45.7598626,59.3526226 C46.67388,58.6517047 48.0609485,58.564597 48.9858376,59.1798393 C49.2576299,59.3595435 49.4798366,59.5822049 49.5426803,59.8988948 C49.6277977,60.3122383 49.4029393,60.6427699 48.9481845,60.7408555 C48.7453346,60.7864378 48.5326738,60.7988477 48.3237252,60.8210422 C48.1945908,60.8334521 48.0641305,60.834884 47.934996,60.8458619 C47.1108689,60.9110137 46.9504452,61.0394079 46.81203,61.76968 C46.7550199,62.0613115 46.672289,62.3376693 46.4484913,62.5672516 C46.2238981,62.8008909 45.9515755,62.8285745 45.7137242,62.607345 C45.5832639,62.4844397 45.4554552,62.3364761 45.3926116,62.1772959 C45.1035837,61.4472625 45.0738854,60.703626 45.3594662,59.9681036 C45.4464397,59.7480673 45.6246293,59.5573852 45.7598626,59.3526226" id="Fill-15" fill="#222222" opacity="0.841184701" transform="translate(47.360170, 60.763345) scale(1, -1) rotate(56.000000) translate(-47.360170, -60.763345) "></path>
                <path d="M40.4694067,55.863901 C41.0756186,55.7040489 41.6892685,55.5732885 42.3440243,55.5917737 C42.5113834,55.5961678 42.6832445,55.6093499 42.8476675,55.6426839 C43.2007854,55.7129885 43.2949371,55.8998109 43.1146591,56.1473921 C42.9537594,56.3677001 42.7266992,56.538916 42.473801,56.6811919 C41.6839835,57.1227168 40.8027547,57.3851469 39.838923,57.4746943 C39.6915295,57.4878765 39.5333703,57.4730276 39.3824535,57.4527242 C38.8159772,57.3799953 38.6566435,56.8163464 38.9424263,56.5354311 C39.1007813,56.3799731 39.3049398,56.2783041 39.5231917,56.1966356 C39.8355954,56.0790573 40.1536755,55.9745095 40.4694067,55.863901" id="Fill-8" fill="#222222" opacity="0.841184701" transform="translate(41.003783, 56.534858) rotate(-180.000000) translate(-41.003783, -56.534858) "></path>
                <path d="M48.8399331,53.4718982 C49.4461449,53.3120462 50.0597949,53.1812857 50.7145506,53.1997709 C50.8819097,53.204165 51.0537708,53.2173471 51.2181938,53.2506812 C51.5713117,53.3209857 51.6654634,53.5078081 51.4851854,53.7553893 C51.3242858,53.9756973 51.0972255,54.1469132 50.8443273,54.2891891 C50.0545098,54.730714 49.173281,54.9931441 48.2094493,55.0826915 C48.0620558,55.0958737 47.9038966,55.0810248 47.7529798,55.0607214 C47.1865035,54.9879925 47.0271699,54.4243436 47.3129526,54.1434283 C47.4713076,53.9879703 47.6754661,53.8863013 47.893718,53.8046329 C48.2061217,53.6870545 48.5242018,53.5825067 48.8399331,53.4718982" id="Fill-8" fill="#222222" opacity="0.841184701" transform="translate(49.374309, 54.142855) rotate(-180.000000) translate(-49.374309, -54.142855) "></path>
                <path d="M48.5782996,99.2681159 C57.5741138,99.2681159 67.2050202,91.236095 67.2050202,81.328095 C67.2050202,71.420095 58.8655533,63.388074 48.5782996,63.388074 C38.2910458,63.388074 29.9515789,71.420095 29.9515789,81.328095 C29.9515789,91.236095 39.5824854,99.2681159 48.5782996,99.2681159 Z" id="Oval-1" fill="#F6E605" opacity="0.841184701"></path>
                <path d="M47.3652632,102.419068 C48.9173188,102.419068 50.5789474,101.033297 50.5789474,99.3238611 C50.5789474,97.6144253 49.1401319,96.2286537 47.3652632,96.2286537 C45.5903944,96.2286537 44.1515789,97.6144253 44.1515789,99.3238611 C44.1515789,101.033297 45.8132076,102.419068 47.3652632,102.419068 Z" id="Oval-1" fill="#F6E605" opacity="0.841184701"></path>
                <path d="M54.8389474,101.672692 C56.391003,101.672692 58.0526316,100.28692 58.0526316,98.5774843 C58.0526316,96.8680485 56.6138161,95.4822769 54.8389474,95.4822769 C53.0640786,95.4822769 51.6252632,96.8680485 51.6252632,98.5774843 C51.6252632,100.28692 53.2868918,101.672692 54.8389474,101.672692 Z" id="Oval-1" fill="#F6E605" opacity="0.841184701"></path>
                <path d="M60.6223205,81.0581518 C60.2143753,82.2955157 59.1382661,82.7118891 57.9929808,82.3258864 C56.1139112,81.6920191 56.1287808,81.6427074 54.249388,81.0088401 C53.1050725,80.6247969 52.37743,79.6542385 52.7866683,78.4168747 C53.4674391,76.3546016 53.2906197,76.2941866 53.9713904,74.2315869 C54.3806287,72.9945496 55.711138,72.7352551 56.8554535,73.1212578 C58.7354929,73.7547985 58.7354929,73.7512063 60.6152089,74.3850736 C61.7595245,74.7730357 62.5366247,75.7455534 62.1273864,76.9845501 C61.3874603,79.0262494 61.3034145,78.9958787 60.6223205,81.0581518" id="Fill-37" fill="#F08909"></path>
                <g id="Globe" transform="translate(55.063158, 75.348088)">
                    <path d="M1.64755126,1.8952437 C1.51308403,2.12460674 1.31055605,2.11410074 1.19499457,1.899623 C1.06523229,1.69090522 1.03019218,1.71653382 0.887539611,1.49681387 C0.747336195,1.27334023 0.86358515,1.089345 1.1130338,1.08272212 C1.40989723,1.08285155 1.41062768,1.07536576 1.70811415,1.07547362 C1.95206294,1.07422239 2.05413257,1.26645848 1.9086871,1.47444278 C1.76405802,1.67940687 1.77553038,1.67703385 1.64755126,1.8952437" id="Fill-1" fill="#96725C"></path>
                    <g id="Group-5" transform="translate(1.869092, 1.661113)">
                        <path d="M0.578430395,0.976669755 C0.291900675,0.977554244 0.0761386614,0.80333153 0.0221068518,0.54833989 C-0.0328272784,0.289637712 0.162568073,0.0632948791 0.377599637,0.0212924491 C0.643719727,-0.0308276695 0.913535034,0.129911984 0.989286987,0.39187167 C1.02662587,0.520726582 1.01517499,0.649085318 0.960928343,0.770454435 C0.901160353,0.903925948 0.784567657,0.956542243 0.647651266,0.973174946 C0.621784746,0.976303016 0.595553,0.975936277 0.578430395,0.976669755" id="Fill-2" fill="#513727"></path>
                        <path d="M3.53996871,1.61764304 C3.36826296,1.61827921 3.23906041,1.51012997 3.20671475,1.35228448 C3.17393685,1.19185687 3.29078465,1.05174935 3.41955496,1.02577857 C3.57901403,0.993258951 3.74052622,1.09298826 3.78601906,1.25536181 C3.80835125,1.33514526 3.80147149,1.41470417 3.76890971,1.48992216 C3.73303413,1.57254967 3.66351617,1.60506928 3.58131929,1.61547257 C3.56586685,1.6174185 3.5500182,1.61719397 3.53996871,1.61764304" id="Fill-4" fill="#DA3434"></path>
                    </g>
                    <path d="M2.9381918,3.24057269 C2.9381918,3.24057269 3.08814887,2.93926404 2.86510384,2.81176822 C2.64205882,2.68429397 2.60740541,2.71266233 2.51248989,2.79677506 C2.41738102,2.88088778 2.36156605,2.86787932 2.22608907,2.80339794 C2.09149294,2.73926171 1.85162608,2.82939328 1.95547887,3.08561457 C2.08188967,3.39732136 2.58411695,3.88599061 2.9381918,3.24057269" id="Fill-6" fill="#A42351"></path>
                    <path d="M1.41660019,2.20045704 C1.57555898,2.30894714 1.72626798,2.4260664 1.83886469,2.58766897 C1.86769597,2.62915365 1.89457223,2.6735291 1.91405806,2.72090318 C1.95573667,2.82227422 1.91517522,2.88863245 1.80605889,2.90325887 C1.70847938,2.9163752 1.61463805,2.90161933 1.525072,2.87387659 C1.24614755,2.78728298 1.00604437,2.63640214 0.804397224,2.42569966 C0.773417554,2.3931893 0.749763867,2.35194192 0.728602303,2.31095342 C0.649069198,2.15722496 0.794708021,1.98712267 0.933429052,1.9901213 C1.009847,1.99160983 1.07829446,2.01736787 1.14308966,2.0506117 C1.23557751,2.09809365 1.32555175,2.1503432 1.41660019,2.20045704" id="Fill-7" fill="#7EC8C7"></path>
                    <path d="M1.88827468,0.187274513 C1.97064041,0.13668789 2.05401677,0.0953075532 2.14297814,0.101157381 C2.16571715,0.102547913 2.18906785,0.106719512 2.21140792,0.117268381 C2.2593859,0.139516905 2.27217825,0.198638522 2.24768395,0.276987851 C2.22582259,0.346706286 2.19497201,0.400889115 2.16061084,0.445913606 C2.05329869,0.585638174 1.93356652,0.668686544 1.80261112,0.697024643 C1.78258484,0.701196241 1.76109581,0.696497199 1.74059081,0.690071979 C1.66362393,0.667056265 1.64197533,0.488684476 1.68080451,0.399786278 C1.70232013,0.350590188 1.73005906,0.318416137 1.75971285,0.292571408 C1.802159,0.255362669 1.84537641,0.222277579 1.88827468,0.187274513" id="Fill-8" fill="#7EB078"></path>
                    <path d="M2.99617664,0.761652693 C2.99082716,0.804518039 2.9755092,0.841019381 2.9497501,0.873011986 C2.92573119,0.902631574 2.90246421,0.933114077 2.87533014,0.959886042 C2.78868589,1.04585404 2.77631121,1.14759182 2.81276926,1.25769988 C2.83137425,1.31406986 2.85558651,1.36882187 2.88128116,1.42232266 C2.91526857,1.49267187 2.95385351,1.56092852 2.96829064,1.63904398 C2.97987042,1.70141122 2.95458396,1.72803218 2.89249572,1.72240165 C2.83186837,1.71703 2.77618231,1.69778698 2.72595314,1.6644137 C2.66597031,1.62428812 2.60504219,1.58504702 2.54815303,1.5405637 C2.46569813,1.47619018 2.37855975,1.47455064 2.29056202,1.51879665 C2.23543454,1.54679827 2.18494756,1.58478814 2.13471838,1.62152679 C2.09035429,1.6539077 2.04560349,1.68029136 1.98864989,1.68078753 C1.93332905,1.68128371 1.9097613,1.65477062 1.92692687,1.60129141 C1.93781917,1.56716309 1.95373868,1.53391925 1.97236515,1.50343675 C2.00609475,1.44842586 2.04379885,1.39606844 2.07939755,1.34233036 C2.10459807,1.30418947 2.12120506,1.26296367 2.12490028,1.21697025 C2.12949782,1.15945691 2.1163712,1.10798398 2.07542304,1.06598155 C2.05973985,1.04984502 2.04409963,1.03299659 2.02575244,1.02048431 C1.91012652,0.94200211 1.91367135,0.755008241 1.98598589,0.667659582 C2.03733222,0.605421775 2.10410394,0.584539211 2.18045744,0.585919876 C2.25616642,0.587408406 2.32070382,0.614676548 2.37215757,0.672168318 C2.39755145,0.700407239 2.42517964,0.726769319 2.45220629,0.753649149 C2.49461535,0.795888881 2.54104189,0.799016951 2.58791959,0.760897642 C2.63640857,0.721527105 2.68238395,0.679028499 2.73119519,0.639787399 C2.81431609,0.573299732 2.93269195,0.595541388 2.97576701,0.686406429 C2.98683117,0.709532575 2.98971001,0.736520269 2.99617664,0.761652693" id="Fill-9" fill="#DF5692"></path>
                    <path d="M4.28791285,2.6055529 C4.28604376,2.81015025 4.0981033,2.87139571 3.95456989,2.84762237 C3.71672251,2.85437469 3.71560535,2.85075044 3.52055374,2.98836395 C3.42022429,3.0914824 3.24921308,3.17345941 3.12003086,3.01660287 C3.02691998,2.89163108 2.99503799,2.82501398 2.96120098,2.75639059 C2.93131698,2.68653755 2.89971428,2.61467823 2.8959761,2.45206174 C2.90246421,2.23959028 3.11556223,2.20984125 3.25570119,2.22671126 C3.49144316,2.21296932 3.49144316,2.21296932 3.68136014,2.0686035 C3.77844552,1.9616235 3.96814766,1.86314323 4.10456993,2.02487524 C4.19916319,2.15659934 4.22008843,2.23085325 4.2429687,2.30307931 C4.26176704,2.37668604 4.28256338,2.44830805 4.28791285,2.6055529" id="Fill-10" fill="#7EB078"></path>
                    <path d="M4.09870484,3.91662413 C3.96739573,4.00712243 3.80235702,3.99599081 3.67938363,3.91138191 C3.47762906,3.77264661 3.48282815,3.76902237 3.28120249,3.63015763 C3.158358,3.54567817 3.1266264,3.42842947 3.25804293,3.33808218 C3.47700603,3.18722291 3.45807879,3.17421446 3.67702041,3.02348463 C3.80832952,2.93311576 3.99629147,2.96899149 4.11911447,3.05360039 C4.32076162,3.19233569 4.32089052,3.19220625 4.52253766,3.33109256 C4.64540363,3.41567989 4.68334406,3.53543104 4.55190605,3.62592934 C4.3267556,3.77227987 4.31766795,3.76591587 4.09870484,3.91662413" id="Fill-11" fill="#00A157"></path>
                    <path d="M4.42220822,1.20020811 C4.31019158,1.20033755 4.22429926,1.29294999 4.22556681,1.41231283 C4.22679138,1.51642363 4.30993377,1.60040692 4.41251902,1.60116197 C4.52651217,1.60178759 4.61064281,1.5119149 4.60965456,1.39082623 C4.6086663,1.28246557 4.52775823,1.20007867 4.42220822,1.20020811 M4.91113702,1.33857667 C4.90986947,1.64517068 4.76908599,1.8470067 4.53822085,1.91888759 C4.34355595,1.97948586 4.00797867,1.90924451 3.87293137,1.66540606 C3.67055378,1.29983175 3.93042207,0.845010366 4.34729414,0.841256682 C4.47808764,0.840005454 4.60219967,0.864749567 4.71047813,0.942627724 C4.86144494,1.05135512 4.91087921,1.20771548 4.91113702,1.33857667" id="Fill-12" fill="#2BB5BD"></path>
                    <path d="M1.18440305,4.14672064 C1.10755542,4.15008602 1.0434477,4.11060761 1.01047003,4.02112324 C0.988320215,3.96087014 0.963785691,3.90124265 0.938714072,3.84213291 C0.910011688,3.77501963 0.872178679,3.77001472 0.823646727,3.8261474 C0.767273181,3.89114654 0.718848649,3.96537887 0.654225315,4.02073493 C0.525472776,4.13071355 0.357018136,4.08085859 0.316864875,3.92449823 C0.306423738,3.88413534 0.31312669,3.83676126 0.321978024,3.79478041 C0.328831363,3.76263679 0.348617962,3.73191699 0.367588176,3.70391537 C0.418934508,3.62903584 0.415131872,3.55855719 0.360305161,3.48779809 C0.309839666,3.42269108 0.25655979,3.35918047 0.212453505,3.28995305 C0.173116629,3.22808198 0.133822721,3.16245723 0.113928702,3.09297093 C0.084109159,2.98823451 0.1674449,2.91413161 0.267387635,2.95650078 C0.330120393,2.98312174 0.385441232,3.03036638 0.439086332,3.07435352 C0.525730582,3.1456088 0.562553851,3.13734638 0.597121319,3.03112143 C0.610119031,2.99099585 0.62107578,2.95024464 0.635384004,2.91063681 C0.644793918,2.88425315 0.655858086,2.85799894 0.670424116,2.83426875 C0.704712295,2.77789877 0.749957221,2.73852823 0.822207311,2.74840862 C0.897959264,2.75876361 0.927521002,2.8137745 0.947114246,2.87851476 C0.971455415,2.9588738 0.989566276,3.04199417 1.02155569,3.11935458 C1.05902347,3.20959401 1.09741506,3.22696019 1.19299658,3.20409292 C1.27048872,3.18547551 1.34566061,3.15723659 1.42151998,3.13249248 C1.48051455,3.11335732 1.53839197,3.09036061 1.59803105,3.07409464 C1.64505914,3.0612372 1.69200129,3.06861513 1.72156302,3.112969 C1.75174779,3.1580995 1.75853668,3.21259264 1.72573088,3.25483237 C1.688392,3.30296151 1.6404616,3.34444619 1.59167184,3.38155157 C1.5360932,3.42394231 1.47374715,3.45744502 1.41548303,3.49642724 C1.35659587,3.53592722 1.33010632,3.59143428 1.34346926,3.66253855 C1.35672478,3.73366439 1.37726331,3.8037763 1.38506194,3.87524731 C1.39054031,3.92600834 1.38774741,3.98037204 1.37535125,4.02973082 C1.3553713,4.10909751 1.29190809,4.14685008 1.18440305,4.14672064" id="Fill-13" fill="#ECB691"></path>
                    <path d="M3.65499949,1.34780987 C3.75343836,1.57866144 3.68709632,1.8621293 3.4939138,2.00461829 C3.43715355,2.04649128 3.37442079,2.07535582 3.30075277,2.06659722 C3.20418299,2.05486156 3.14467281,1.98699323 3.15088163,1.88937587 C3.15376046,1.84564761 3.16383637,1.80226451 3.17180687,1.75901086 C3.17702744,1.73241148 3.18474013,1.70615726 3.19047631,1.67966574 C3.22719216,1.51042637 3.20865163,1.46954573 3.05555792,1.39143027 C2.99443645,1.36019271 2.93853554,1.32433856 2.90145447,1.26408546 C2.86387927,1.20296944 2.87457821,1.14647003 2.93780509,1.11447742 C2.97327488,1.09659349 3.01396524,1.08147089 3.05280799,1.07985292 C3.23202602,1.07234555 3.39869751,1.11784279 3.54347697,1.22557784 C3.58702468,1.25795876 3.61815474,1.30658407 3.65499949,1.34780987" id="Fill-14" fill="#E9823A"></path>
                    <path d="M0.830858123,0.813023887 C0.955045273,0.707998861 1.14350567,0.694946722 1.26916995,0.787134163 C1.30609824,0.814060906 1.33628937,0.847424321 1.34482792,0.894876894 C1.35639278,0.956811979 1.32584137,1.00633859 1.26405403,1.02103566 C1.23649291,1.02786568 1.20759877,1.02972516 1.17920902,1.03305078 C1.16166358,1.03491026 1.143938,1.03512482 1.12639256,1.03676974 C1.01441876,1.04653203 0.992622063,1.06577053 0.973815654,1.17519394 C0.966069719,1.21889179 0.954829107,1.26030105 0.92442181,1.29470148 C0.893906429,1.32970982 0.856906081,1.3338579 0.82458932,1.30070904 C0.806863739,1.28229301 0.789498434,1.26012225 0.780959892,1.23627081 C0.741689804,1.12688315 0.737654713,1.01545721 0.776456442,0.905247087 C0.788273496,0.872277025 0.812484045,0.843705355 0.830858123,0.813023887" id="Fill-15" fill="#622659"></path>
                    <path d="M1.73698841,5.2733436 C1.50479127,5.17997611 1.35195537,4.93249184 1.38828451,4.69454278 C1.39898345,4.6246466 1.42293791,4.55969061 1.48133094,4.51354618 C1.55794224,4.45318522 1.64768016,4.45907462 1.71191679,4.53242247 C1.74083401,4.56540742 1.76418692,4.60315999 1.78900074,4.6395319 C1.8041898,4.66190299 1.81701564,4.68591363 1.83171057,4.70891033 C1.92488591,4.85463525 1.96695123,4.87025403 2.1300564,4.81690426 C2.19523831,4.79550394 2.25992609,4.78113639 2.32876025,4.79740236 C2.39836783,4.81388405 2.43065802,4.86151701 2.40831484,4.92912646 C2.39581126,4.96687903 2.37776485,5.00637901 2.35136123,5.03524354 C2.22989171,5.16785214 2.08027838,5.25394957 1.90176931,5.2805921 C1.84838202,5.28859564 1.79207292,5.27632066 1.73698841,5.2733436" id="Fill-16" fill="#513727"></path>
                    <path d="M2.44365573,4.42818223 C2.39102037,4.58680774 2.25223488,4.64015751 2.10459807,4.59066929 C1.8623465,4.50942576 1.86432301,4.50319119 1.62204997,4.42194766 C1.4744776,4.3725673 1.38087259,4.24822112 1.43355092,4.08974662 C1.52133381,3.82552178 1.49856096,3.81788498 1.58638682,3.55355227 C1.63904367,3.3950562 1.81044159,3.36157507 1.95805692,3.41106329 C2.20032997,3.49230682 2.20045888,3.49217738 2.44271044,3.57342091 C2.59034726,3.6227797 2.69028999,3.74751419 2.63763315,3.9061397 C2.54241685,4.16784051 2.53146011,4.1641084 2.44365573,4.42818223" id="Fill-17" fill="#E9823A"></path>
                    <g id="Group-21" transform="translate(2.234317, 0.215729)">
                        <mask id="mask-3" fill="white">
                            <use xlink:href="#path-2"></use>
                        </mask>
                        <g id="Clip-19"></g>
                        <path d="M1.62926853,0.791013406 C1.481911,0.966487348 1.31126501,0.928238602 1.24391323,0.729012901 C1.1637571,0.532807404 1.1301564,0.549418535 1.04054738,0.341822549 C0.953537909,0.131465233 1.07887452,-0.00789568022 1.29171473,0.0226083958 C1.54412815,0.0657326165 1.54588982,0.0596059138 1.79881884,0.102837999 C2.0062881,0.137225196 2.06554048,0.315568334 1.91182374,0.471173638 C1.75946048,0.624405924 1.76942898,0.624168622 1.62926853,0.791013406" id="Fill-18" fill="#ECB691" mask="url(#mask-3)"></path>
                        <path d="M0.189170313,4.95979925 C0.259973352,4.82125486 0.365370215,4.82870233 0.424713098,4.95937165 C0.491462412,5.08637068 0.509719417,5.07108376 0.583113183,5.20485322 C0.655257305,5.34090324 0.593963757,5.45197394 0.464183583,5.45468211 C0.309593391,5.45322113 0.309136204,5.45778226 0.154363136,5.45632127 C0.0274784809,5.45589366 -0.0249761172,5.33905028 0.0514960423,5.21372604 C0.127602452,5.09004096 0.121719978,5.09150195 0.189170313,4.95979925" id="Fill-20" fill="#ECB691" mask="url(#mask-3)"></path>
                    </g>
                    <path d="M3.05405405,5.28658936 C2.76745988,5.28745228 2.55167638,5.11322957 2.49768754,4.8582595 C2.44271044,4.59953575 2.63814876,4.37319291 2.85318032,4.33108262 C3.11927893,4.27909194 3.38911572,4.43981002 3.46491064,4.70179128 C3.50227101,4.83064619 3.49079865,4.95900493 3.4364231,5.08037404 C3.37667659,5.21384556 3.26016983,5.26644028 3.12325344,5.28309455 C3.09736543,5.28620105 3.0711122,5.28570487 3.05405405,5.28658936" id="Fill-22" fill="#FAEF5C"></path>
                    <path d="M5.3398037,2.22658182 C5.3398037,2.22658182 5.39604834,1.89451022 5.14574034,1.83764407 C4.89556125,1.78064847 4.87055408,1.81777543 4.80395423,1.92613609 C4.73737587,2.03436731 4.68010001,2.03809942 4.53199054,2.01585777 C4.38448263,1.99374555 4.18098788,2.14997646 4.35462012,2.36495038 C4.56572014,2.62628445 5.18769824,2.94737545 5.3398037,2.22658182" id="Fill-23" fill="#F9DDC7"></path>
                    <path d="M4.94821809,2.87264693 C5.07280277,2.95762257 5.19092082,3.0493721 5.27904745,3.17596186 C5.3016914,3.20847222 5.32274554,3.24320458 5.33804202,3.28046097 C5.37065446,3.35982766 5.33879396,3.41194778 5.25339577,3.4233167 C5.1769993,3.43356382 5.10330979,3.4220439 5.03310067,3.40031999 C4.81454576,3.33245166 4.62647639,3.21431847 4.46837695,3.04911323 C4.44410023,3.02361407 4.4255597,2.99125472 4.40901715,2.95924054 C4.34652072,2.83862648 4.46079316,2.7052844 4.56943684,2.70765742 C4.62957006,2.70890865 4.68308626,2.72914402 4.73376659,2.7552688 C4.80631745,2.79239576 4.8767629,2.83325482 4.94821809,2.87264693" id="Fill-24" fill="#E9823A"></path>
                    <path d="M0.870073264,1.76351959 C0.854948654,1.782137 0.836966696,1.79477872 0.815418424,1.80213508 C0.795374019,1.80901683 0.775544452,1.81639476 0.755005919,1.82101136 C0.688835751,1.83576722 0.653172608,1.8798838 0.637854644,1.94248834 C0.630098984,1.97450252 0.625222157,2.00748748 0.621677327,2.04023514 C0.61697237,2.08335936 0.615038826,2.12708762 0.598840025,2.16796826 C0.585949732,2.20071592 0.566227585,2.20572083 0.538599391,2.18470883 C0.51165868,2.16434401 0.491184598,2.13873699 0.477434953,2.10797403 C0.460935378,2.07136483 0.443898708,2.03473405 0.430127579,1.99713249 C0.41034098,1.94235891 0.369822494,1.91563009 0.315446943,1.91038787 C0.281266184,1.90713037 0.246354975,1.90999956 0.211937894,1.91237258 C0.181452352,1.91448672 0.152621064,1.91375325 0.125744804,1.89712054 C0.0994915748,1.88076829 0.0963119693,1.86139582 0.120159011,1.84126831 C0.135197685,1.82851873 0.152513645,1.81764599 0.170237797,1.80875796 C0.202227207,1.79290188 0.235462678,1.77939724 0.268010666,1.76477082 C0.291041322,1.75439426 0.310956824,1.73976783 0.326253305,1.71914414 C0.345373905,1.69353712 0.354268207,1.66540606 0.347414868,1.63354289 C0.344750875,1.62141892 0.342430622,1.60866934 0.337467859,1.59740829 C0.306230384,1.52617458 0.362797284,1.4393221 0.422479339,1.41956133 C0.465038788,1.40556052 0.502528056,1.41557034 0.538040812,1.43893379 C0.573295762,1.46205993 0.595553,1.49405254 0.602943435,1.53629227 C0.606509749,1.55717483 0.611730318,1.57779852 0.616585661,1.59855165 C0.624126482,1.630911 0.64503024,1.6460336 0.678265711,1.64215047 C0.712682792,1.63792219 0.746842067,1.63166605 0.781259149,1.62767506 C0.840017399,1.62103061 0.889129414,1.66665729 0.882705751,1.72214278 C0.881094465,1.73614359 0.87443448,1.74977766 0.870073264,1.76351959" id="Fill-25" fill="#FAEF5C"></path>
                    <g id="Group-29" transform="translate(0.000000, 2.308300)">
                        <path d="M1.1022704,2.49022419 C1.00288625,2.54221487 0.924448815,2.46660187 0.898818617,2.39060056 C0.833830058,2.2765015 0.835290958,2.27488354 0.718225618,2.21564436 C0.642409214,2.19338113 0.55838599,2.13125119 0.600730601,2.02765814 C0.636930839,1.94990942 0.660906784,1.9170539 0.685247953,1.88292558 C0.711243376,1.85017792 0.737754411,1.8160496 0.815353972,1.77206246 C0.919743858,1.72007178 0.989372922,1.81630847 1.01762415,1.88892284 C1.08534115,2.00028213 1.08544857,2.00028213 1.20440449,2.05527145 C1.28138102,2.07501065 1.37810118,2.14175719 1.33539134,2.25024729 C1.29611892,2.3306279 1.26580525,2.35998861 1.23673764,2.38986708 C1.20601577,2.418106 1.17681926,2.4468411 1.1022704,2.49022419" id="Fill-26" fill="#00A157"></path>
                        <path d="M0.446304896,0.564965078 C0.382970592,0.618563727 0.303308584,0.611936792 0.244056206,0.56189018 C0.146777465,0.479557142 0.149334039,0.477569061 0.0521197496,0.395262531 C-0.00717559619,0.345189411 -0.0224291091,0.275765641 0.0409266789,0.222166992 C0.146519659,0.132782895 0.137389035,0.124963112 0.242939047,0.0357380611 C0.306423738,-0.017860588 0.396913592,0.00334560357 0.456144486,0.053551262 C0.553423227,0.135884301 0.55355213,0.135884301 0.650744936,0.218031785 C0.710061766,0.268104905 0.728237079,0.339198662 0.664945742,0.392638264 C0.556345027,0.479398095 0.551983811,0.475740027 0.446304896,0.564965078" id="Fill-28" fill="#DA3434"></path>
                    </g>
                    <path d="M3.91545483,5.47726898 C3.87710941,5.55833521 3.80919446,5.58980689 3.74642062,5.56992272 C3.64297641,5.53743134 3.64451546,5.53418684 3.54149694,5.50169546 C3.47852663,5.48185764 3.4470251,5.42299308 3.48533777,5.34192686 C3.54889751,5.20658473 3.539041,5.20366467 3.60279722,5.0682762 C3.64110989,4.98720997 3.72209044,4.9646375 3.7850935,4.98447532 C3.88811202,5.0169667 3.88811202,5.0169667 3.99132702,5.04950443 C4.05429733,5.06906415 4.08884423,5.12843855 4.05053156,5.20955113 C3.98376272,5.34350276 3.9791783,5.34192686 3.91545483,5.47726898" id="Fill-30" fill="#622659"></path>
                    <g id="Group-34" transform="translate(2.169866, 0.000000)">
                        <path d="M0.935083307,3.847634 C0.872608355,3.847634 0.824828337,3.89938738 0.82568769,3.96576719 C0.826181818,4.02373356 0.872608355,4.07048203 0.929733835,4.07087034 C0.993111107,4.07134494 1.04001029,4.02138211 1.03951616,3.95375108 C1.03902203,3.89349798 0.993841557,3.847634 0.935083307,3.847634 M1.2073048,3.92475711 C1.20668177,4.09548501 1.12815841,4.20783666 0.999556253,4.24785438 C0.891148893,4.28170226 0.704454489,4.24246116 0.629218148,4.10674607 C0.51638512,3.90324893 0.661186073,3.6499184 0.893404694,3.64778269 C0.966213363,3.64717865 1.03528385,3.66079114 1.09552448,3.70415267 C1.17967661,3.76490194 1.2071759,3.85188386 1.2073048,3.92475711" id="Fill-31" fill="#7EC8C7"></path>
                        <path d="M0.354762335,0.217346935 C0.292330352,0.217346935 0.244550334,0.269078741 0.245280784,0.335458545 C0.245903815,0.393446491 0.292330352,0.440194959 0.349412864,0.440561698 C0.412768652,0.441057874 0.459689317,0.391073473 0.459130737,0.323464014 C0.458636609,0.263210913 0.413499102,0.217346935 0.354762335,0.217346935 M0.627048282,0.294448468 C0.626339316,0.465176373 0.547880402,0.577549592 0.419235282,0.61752417 C0.310956824,0.651415191 0.124047582,0.612152519 0.0488756926,0.476437425 C-0.0639573349,0.272961863 0.0808865859,0.0196097632 0.313062239,0.0174956193 C0.385892392,0.0168700053 0.454962876,0.030504076 0.515246478,0.0738655985 C0.599334153,0.134463866 0.626919379,0.221596796 0.627048282,0.294448468" id="Fill-33" fill="#ECB691"></path>
                    </g>
                    <path d="M4.15073866,4.93564148 C4.10197038,4.93762619 4.06125854,4.91249376 4.04022588,4.85575704 C4.0261325,4.8175083 4.0107286,4.77964786 3.9947876,4.74215417 C3.97650487,4.69952612 3.95246447,4.69641963 3.92172113,4.73188547 C3.88586463,4.77326228 3.85512128,4.82039906 3.81404422,4.85551974 C3.7324057,4.92550222 3.6255022,4.89376849 3.59985052,4.79440372 C3.59325499,4.76877512 3.59759472,4.7387888 3.60322348,4.71214627 C3.60743431,4.69165202 3.62000235,4.67217169 3.63209774,4.65439562 C3.66468869,4.60691368 3.66234696,4.56217149 3.62760762,4.51717043 C3.59548931,4.47579361 3.5616308,4.43556016 3.53363738,4.39157302 C3.50860873,4.35231035 3.48370899,4.31058837 3.47114095,4.26647179 C3.45210628,4.20009199 3.50510687,4.15297678 3.56859156,4.17996448 C3.60831515,4.19672662 3.64354861,4.22684238 3.67751453,4.25471457 C3.7325346,4.2999745 3.75605938,4.29471072 3.77771507,4.22720912 C3.78615822,4.2018394 3.79316194,4.17584405 3.8021207,4.15060377 C3.80807171,4.13397106 3.81518286,4.11735993 3.82427051,4.10223733 C3.84616253,4.06649104 3.87490788,4.04148805 3.92086177,4.04774419 C3.9688996,4.05436707 3.98756904,4.08922887 4.00002965,4.13034682 C4.01543355,4.18136672 4.02688443,4.23409088 4.04731554,4.28319079 C4.07107665,4.34059627 4.09561117,4.35157687 4.15621703,4.33707989 C4.2052646,4.32532266 4.2530661,4.30733086 4.30123282,4.29171208 C4.33880803,4.27956654 4.37541646,4.26483225 4.41324947,4.25458513 C4.44324088,4.24632271 4.47299597,4.25109032 4.49177283,4.2791998 C4.51095788,4.30782704 4.5153191,4.34242996 4.49439386,4.36920193 C4.47076165,4.39983544 4.44038353,4.42619752 4.40925348,4.44981984 C4.37391259,4.4766781 4.33433939,4.4979274 4.29749464,4.52269309 C4.26015576,4.5476745 4.24322651,4.58292462 4.25166965,4.62816298 C4.26015576,4.67316404 4.27308902,4.71777679 4.27807326,4.7631446 C4.28155364,4.79539608 4.27981345,4.83002058 4.27199334,4.86138757 C4.25940382,4.91176028 4.21894979,4.93574934 4.15073866,4.93564148" id="Fill-35" fill="#B6B636"></path>
                    <path d="M4.97386977,4.05835806 C4.8332152,4.21657368 4.59349872,4.26707584 4.41574159,4.16960949 C4.36344997,4.14098225 4.31915033,4.10299238 4.29947115,4.04310602 C4.27384095,3.96486112 4.3044554,3.89487865 4.38087335,3.86489232 C4.41524746,3.85127982 4.45183441,3.84364302 4.48781981,3.83425881 C4.50984072,3.82852042 4.53272099,3.82528448 4.5550212,3.82015013 C4.69705074,3.78779079 4.7215423,3.75890468 4.72629022,3.61341706 C4.72813783,3.55542912 4.7356142,3.49955531 4.76835554,3.44944147 C4.80133321,3.39868045 4.84827536,3.38657805 4.89530344,3.42394231 C4.92157815,3.4448033 4.94772396,3.47053977 4.96291302,3.49994363 C5.03260654,3.63503311 5.05774261,3.77926949 5.02712817,3.92913641 C5.01816941,3.97398646 4.9921525,4.01536328 4.97386977,4.05835806" id="Fill-36" fill="#00A157"></path>
                    <path d="M1.74083401,0.89225501 C1.71372143,0.973994716 1.64220179,1.00150016 1.56608461,0.976000996 C1.44119916,0.934128003 1.44218742,0.930870496 1.31728048,0.888997503 C1.24122775,0.863627776 1.19286767,0.799513127 1.22006619,0.717773421 C1.26531112,0.581540578 1.25355947,0.577549592 1.2988044,0.441295176 C1.32600291,0.359577043 1.41443032,0.342448163 1.49048305,0.367947327 C1.61543295,0.409798747 1.61543295,0.409561445 1.74036137,0.451434438 C1.81641409,0.477063039 1.8680612,0.541307126 1.84086268,0.623154696 C1.79168622,0.758028447 1.78610042,0.756022167 1.74083401,0.89225501" id="Fill-37" fill="#A42351"></path>
                </g>
                <g id="Group" transform="translate(41.111461, 47.812534) rotate(-18.000000) translate(-41.111461, -47.812534) translate(11.611461, 7.812534)" fill="#F6E605" opacity="0.841184701">
                    <path d="M25.8197952,17.7934485 C32.277527,12.2347521 42.0774675,11.543937 48.6120101,16.423174 C50.5322814,17.8483352 52.1022202,19.6141723 52.5462244,22.1257114 C53.1475972,25.4037713 51.558924,28.0250837 48.3459823,28.8029605 C46.9128042,29.1644556 45.410309,29.2628731 43.9340419,29.438889 C43.0216789,29.5373065 42.0999487,29.5486624 41.1875857,29.635724 C35.3649485,30.1524159 34.2315201,31.1706586 33.2535868,36.9621502 C32.8507982,39.2749615 32.2662864,41.4666437 30.6851069,43.2873675 C29.0983071,45.1402663 27.174289,45.359813 25.4938175,43.6053317 C24.5720872,42.6306199 23.6690914,41.4571804 23.2250872,40.1947867 C21.1830426,34.4051877 20.9732179,28.507708 22.9909078,22.6745782 C23.6053946,20.9295601 24.8643432,19.4173373 25.8197952,17.7934485" id="Fill-15" transform="translate(37.126316, 28.981312) scale(-1, -1) rotate(29.000000) translate(-37.126316, -28.981312) "></path>
                    <path d="M12.666111,17.7934485 C19.1238428,12.2347521 28.9237833,11.543937 35.4583259,16.423174 C37.3785971,17.8483352 38.948536,19.6141723 39.3925402,22.1257114 C39.9939129,25.4037713 38.4052397,28.0250837 35.1922981,28.8029605 C33.75912,29.1644556 32.2566248,29.2628731 30.7803577,29.438889 C29.8679947,29.5373065 28.9462645,29.5486624 28.0339015,29.635724 C22.2112643,30.1524159 21.0778359,31.1706586 20.0999026,36.9621502 C19.697114,39.2749615 19.1126022,41.4666437 17.5314227,43.2873675 C15.9446229,45.1402663 14.0206048,45.359813 12.3401332,43.6053317 C11.418403,42.6306199 10.5154072,41.4571804 10.071403,40.1947867 C8.02935842,34.4051877 7.81953366,28.507708 9.83722357,22.6745782 C10.4517104,20.9295601 11.710659,19.4173373 12.666111,17.7934485" id="Fill-15" transform="translate(23.972632, 28.981312) scale(1, -1) rotate(36.000000) translate(-23.972632, -28.981312) "></path>
                    <path d="M5.56695088,61.6705451 C8.48187275,59.1614341 12.9054168,58.8496107 15.8550099,61.052024 C16.7217911,61.6953201 17.4304376,62.4923921 17.6308544,63.6260626 C17.9023049,65.105729 17.185202,66.2889496 15.734929,66.6400713 C15.0880142,66.8032447 14.4098107,66.8476688 13.7434462,66.9271198 C13.3316195,66.9715439 12.9155645,66.9766698 12.5037377,67.0159681 C9.87548784,67.2491949 9.3638755,67.7088142 8.9224513,70.3230054 C8.74063865,71.3669732 8.4767989,72.3562652 7.76307855,73.1781122 C7.04682128,74.0144826 6.17834877,74.1135826 5.41980948,73.3216365 C5.00375449,72.8816664 4.5961559,72.3519936 4.39573917,71.7821683 C3.47399132,69.1688314 3.37927961,66.5067988 4.29003414,63.8738128 C4.56740413,63.0861382 5.13567437,62.4035438 5.56695088,61.6705451" id="Fill-15" transform="translate(10.670542, 66.720576) scale(1, -1) rotate(36.000000) translate(-10.670542, -66.720576) "></path>
                    <path d="M43.5371949,64.5446652 C46.4521168,62.0355543 50.8756608,61.7237308 53.8252539,63.9261442 C54.6920352,64.5694403 55.4006817,65.3665123 55.6010984,66.5001828 C55.8725489,67.9798492 55.155446,69.1630697 53.705173,69.5141915 C53.0582583,69.6773648 52.3800548,69.721789 51.7136903,69.8012399 C51.3018635,69.8456641 50.8858085,69.8507899 50.4739817,69.8900882 C47.8457319,70.1233151 47.3341196,70.5829343 46.8926954,73.1971255 C46.7108827,74.2410934 46.447043,75.2303853 45.7333226,76.0522324 C45.0170653,76.8886027 44.1485928,76.9877028 43.3900535,76.1957566 C42.9739985,75.7557865 42.5664,75.2261138 42.3659832,74.6562885 C41.4442354,72.0429516 41.3495237,69.380919 42.2602782,66.7479329 C42.5376482,65.9602583 43.1059184,65.277664 43.5371949,64.5446652" id="Fill-15" transform="translate(48.640786, 69.594696) scale(-1, -1) rotate(36.000000) translate(-48.640786, -69.594696) "></path>
                    <path d="M36.1057323,35.138362 C32.1311066,37.1776046 28.9941938,34.2118181 27.9691768,31.2308009 C25.3701187,26.7554672 25.4285438,26.6920053 20.7468025,24.3684534 C17.7147112,23.4952176 14.3544083,21.0582804 16.0478773,16.9950261 C17.4956171,13.9454699 18.4544762,12.6567701 19.4279416,11.318147 C20.4675648,10.033678 21.5278087,8.69505487 24.6312129,6.96973718 C28.8060306,4.9304946 31.5906743,8.70520878 32.7205128,11.5533791 C35.4286884,15.9212506 35.4329844,15.9212506 40.1903347,18.0781093 C43.2688223,18.8523445 47.1369082,21.4703597 45.4288329,25.725692 C43.8582286,28.8784795 42.6459076,30.0301016 41.4834198,31.2020315 C40.2547741,32.3096533 39.0871312,33.4367367 36.1057323,35.138362" id="Fill-26" transform="translate(30.720293, 21.100874) scale(-1, 1) rotate(45.000000) translate(-30.720293, -21.100874) "></path>
                </g>
                <path d="M35.6416145,65.3332886 C33.5590184,66.882612 43.8709948,75.526873 51.3862015,73.5552145 C58.9014081,71.5835561 58.9610523,62.8984838 56.913074,62.2692425" id="Path-233" stroke="#F18908"></path>
                <path d="M52.6967671,73.3589204 C52.6969205,72.327158 52.6711375,72.3244973 52.6715979,71.2907394 C52.6687842,70.7102611 52.9801254,70.3607461 53.4077974,70.3607461 C53.6043935,70.3607461 53.8254937,70.4345275 54.052119,70.5937561 C54.7609495,71.0963086 54.7531736,71.0567061 55.5080966,71.5012875 C56.3015407,71.9683308 56.2654239,72.6722215 55.5230856,73.0737723 C54.8008008,73.5248006 54.889558,73.6467804 54.129059,74.142272 C53.9017176,74.2854856 53.6860911,74.3516944 53.4945084,74.3516944 C53.0346586,74.3516944 52.7129838,73.9705588 52.6967671,73.3589204 Z" id="@COLLECTION_play" fill="#F08909" transform="translate(54.381558, 72.356220) scale(-1, -1) translate(-54.381558, -72.356220) "></path>
                <path d="M54.1135475,73.7726424 C54.1135475,73.7726424 54.6958265,73.7892546 55.2457668,73.5107981 C55.7293245,73.2659536 56.1277199,72.9079065 56.1277199,72.9079065" id="Path-233" stroke="#0F0E0C" stroke-width="0.1"></path>
            </g>
        </g>
    </g>
</svg>