<?xml version="1.0" encoding="UTF-8" standalone="no"?>
<svg width="55px" height="33px" viewBox="0 0 55 33" version="1.1" xmlns="http://www.w3.org/2000/svg" xmlns:xlink="http://www.w3.org/1999/xlink">
    <!-- Generator: Sketch 3.8.3 (29802) - http://www.bohemiancoding.com/sketch -->
    <title>Group 4</title>
    <desc>Created with Sketch.</desc>
    <defs>
        <filter x="-50%" y="-50%" width="200%" height="200%" filterUnits="objectBoundingBox" id="filter-1">
            <feOffset dx="0" dy="1" in="SourceAlpha" result="shadowOffsetOuter1"></feOffset>
            <feGaussianBlur stdDeviation="2" in="shadowOffsetOuter1" result="shadowBlurOuter1"></feGaussianBlur>
            <feColorMatrix values="0 0 0 0 0   0 0 0 0 0   0 0 0 0 0  0 0 0 0.5 0" type="matrix" in="shadowBlurOuter1" result="shadowMatrixOuter1"></feColorMatrix>
            <feMerge>
                <feMergeNode in="shadowMatrixOuter1"></feMergeNode>
                <feMergeNode in="SourceGraphic"></feMergeNode>
            </feMerge>
        </filter>
    </defs>
    <g id="Page-1" stroke="none" stroke-width="1" fill="none" fill-rule="evenodd">
        <g id="Group-4" filter="url(#filter-1)" transform="translate(-1.000000, -9.000000)" fill="#FFF350">
            <path d="M32.612423,7.68401241 C34.3646641,9.08205491 35.797228,10.8142908 36.2023803,13.278039 C36.751131,16.4937224 35.301472,19.0651552 32.3696735,19.8282302 C31.0619033,20.1828465 29.6908815,20.2793913 28.3437928,20.4520579 C27.5112646,20.5486026 26.6701888,20.5597424 25.8376606,20.6451474 C20.5245238,21.1520074 19.1888473,26.3323749 18.5979133,27.8321627 C17.7556436,29.9698394 17.697005,32.2509424 16.254184,34.0370206 C14.8062346,35.8546615 13.0505745,36.0700306 11.5171499,34.3489345 C10.6760741,33.3927699 9.85209345,32.2416593 9.44694112,31.003287 C7.58358231,25.3238554 4.89388904,18.3610912 7.97371568,13.2780388 C10.2974976,9.44278875 13.2497805,8.24659166 13.2497805,8.24659166 C13.2497805,8.24659166 26.6496748,2.89761991 32.612423,7.68401241 Z" id="Fill-15" transform="translate(21.444650, 20.610369) scale(1, -1) rotate(33.000000) translate(-21.444650, -20.610369) "></path>
            <path d="M46.612423,7.68401241 C48.3646641,9.08205491 49.797228,10.8142908 50.2023803,13.278039 C50.751131,16.4937224 49.301472,19.0651552 46.3696735,19.8282302 C45.0619033,20.1828465 43.6908815,20.2793913 42.3437928,20.4520579 C41.5112646,20.5486026 40.6701888,20.5597424 39.8376606,20.6451474 C34.5245238,21.1520074 33.1888473,26.3323749 32.5979133,27.8321627 C31.7556436,29.9698394 31.697005,32.2509424 30.254184,34.0370206 C28.8062346,35.8546615 27.0505745,36.0700306 25.5171499,34.3489345 C24.6760741,33.3927699 23.8520934,32.2416593 23.4469411,31.003287 C21.5835823,25.3238554 18.893889,18.3610912 21.9737157,13.2780388 C24.2974976,9.44278875 27.2497805,8.24659166 27.2497805,8.24659166 C27.2497805,8.24659166 40.6496748,2.89761991 46.612423,7.68401241 Z" id="Fill-15" transform="translate(35.444650, 20.610369) scale(-1, -1) rotate(33.000000) translate(-35.444650, -20.610369) "></path>
            <path d="M28.4446501,37 C35.9541636,37 42.0418272,32.3277694 42.0418272,26.5642809 C42.0418272,20.8007925 35.9681114,18.7097205 28.4446501,17.6444908 C20.9211889,16.5792612 14.8474731,20.8007925 14.8474731,26.5642809 C14.8474731,32.3277694 20.9351366,37 28.4446501,37 Z" id="Oval-57"></path>
        </g>
    </g>
</svg>