<?xml version="1.0" encoding="UTF-8" standalone="no"?>
<svg width="51px" height="60px" viewBox="0 0 51 60" version="1.1" xmlns="http://www.w3.org/2000/svg" xmlns:xlink="http://www.w3.org/1999/xlink">
    <!-- Generator: Sketch 3.8.3 (29802) - http://www.bohemiancoding.com/sketch -->
    <title>Group 3</title>
    <desc>Created with Sketch.</desc>
    <defs>
        <polygon id="path-1" points="0.0813539375 26.6295703 10.2235977 26.6295703 10.2235977 0.0940083368 0.0813539375 0.0940083368"></polygon>
    </defs>
    <g id="Page-1" stroke="none" stroke-width="1" fill="none" fill-rule="evenodd">
        <g id="iPhone-6-Copy-5" transform="translate(-20.000000, -30.000000)">
            <g id="Group-3" transform="translate(20.000000, 30.000000)">
                <path d="M0.375617112,44.7695694 C0.37790574,29.3630065 -0.00658377952,29.3232772 0.000282104754,13.8869173 C-0.0416760769,5.21905437 4.60118745,0 10.9788311,0 C13.9105637,0 17.2077139,1.10172396 20.5872547,3.47936958 C31.157665,10.9836225 31.0417078,10.3922672 42.2994694,17.03088 C54.1316766,24.0048996 53.5930862,34.5155907 42.5229921,40.5116584 C31.7519454,47.2465383 33.0755353,49.0679738 21.7346202,56.4667913 C18.3443991,58.6052971 15.1288767,59.5939454 12.2719059,59.5939454 C5.4144133,59.5939454 0.617448814,53.9027236 0.375617112,44.7695694 Z" id="@COLLECTION_play" fill="#28BDBD" opacity="0.854361007"></path>
                <g id="Globe" transform="translate(8.000000, 15.000000)">
                    <path d="M8.42885587,9.66970175 C7.74092283,10.8399323 6.7047917,10.7863298 6.11358035,9.69204532 C5.44971782,8.62714868 5.27045296,8.75790808 4.54064382,7.63687735 C3.82336455,6.496695 4.41809304,5.55793495 5.69426983,5.52414444 C7.21302023,5.52480484 7.2167572,5.48661164 8.73869502,5.48716198 C9.98673459,5.4807781 10.5089218,6.46158368 9.76482425,7.52273804 C9.0249033,8.56848305 9.08359578,8.5563757 8.42885587,9.66970175" id="Fill-1" fill="#96725C"></path>
                    <g id="Group-5" transform="translate(9.562258, 8.475146)">
                        <path d="M2.95924415,4.98305587 C1.49336095,4.98756861 0.389524635,4.09866884 0.113098434,2.79767884 C-0.16794403,1.47775734 0.831696646,0.322936097 1.93179599,0.108635967 C3.29326372,-0.157285509 4.67363615,0.662822487 5.06118239,1.99936408 C5.25220773,2.65679329 5.19362516,3.31169096 4.91609985,3.93092698 C4.61032741,4.6119105 4.01384033,4.88036351 3.31337744,4.96522504 C3.18104458,4.98118473 3.04684323,4.9793136 2.95924415,4.98305587" id="Fill-2" fill="#513727"></path>
                        <path d="M18.1104447,8.25335849 C17.2319998,8.2566043 16.5710009,7.70481729 16.4055208,6.89947555 C16.2378294,6.08095966 16.8356216,5.36611864 17.4944092,5.23361338 C18.3102002,5.06769542 19.1364949,5.57652323 19.3692359,6.40496747 C19.4834871,6.81202972 19.4482904,7.21794639 19.2817046,7.60171522 C19.0981655,8.02328813 18.7425123,8.18920609 18.3219939,8.24228457 C18.2429394,8.25221291 18.1618578,8.25106733 18.1104447,8.25335849" id="Fill-4" fill="#DA3434"></path>
                    </g>
                    <path d="M15.0317601,16.5336898 C15.0317601,16.5336898 15.7989389,14.9963863 14.6578428,14.3458913 C13.5167466,13.6955063 13.3394602,13.8402442 12.8538733,14.2693948 C12.3672972,14.6985454 12.0817484,14.6321751 11.3886496,14.3031853 C10.7000571,13.9759566 9.47290059,14.4358159 10.0042104,15.7430797 C10.6509268,17.3334354 13.2203166,19.8266694 15.0317601,16.5336898" id="Fill-6" fill="#A42351"></path>
                    <path d="M7.24731246,11.2269273 C8.06054406,11.7804535 8.83156983,12.3780063 9.40761345,13.202517 C9.55511403,13.4141755 9.69261271,13.640583 9.792302,13.8822898 C10.0055294,14.3994938 9.79801737,14.7380594 9.23977933,14.8126847 C8.74056351,14.8796054 8.26047219,14.8043197 7.80225318,14.6627737 C6.37527848,14.2209654 5.14691298,13.451158 4.1152882,12.3761352 C3.95679652,12.2102645 3.83578449,11.9998167 3.72752214,11.7906897 C3.32063157,11.0063534 4.06571833,10.1384764 4.77541375,10.1537757 C5.16636723,10.1613703 5.51654372,10.2927901 5.84803534,10.4624031 C6.32120226,10.7046602 6.78150959,10.9712421 7.24731246,11.2269273" id="Fill-7" fill="#7EC8C7"></path>
                    <path d="M9.66039446,0.955491205 C10.0817767,0.69739376 10.5083294,0.486267605 10.9634549,0.516113944 C11.0797874,0.523208566 11.1992493,0.544492431 11.3135409,0.598313699 C11.5589958,0.711827646 11.6244413,1.01347139 11.4991287,1.41321662 C11.3872862,1.76892628 11.229455,2.04537188 11.0536636,2.27509084 C10.5046557,2.987978 9.8921071,3.41169816 9.22214057,3.55628166 C9.11968631,3.57756552 9.00974866,3.5535906 8.9048453,3.52080855 C8.51108349,3.40338033 8.40032948,2.49331162 8.59897918,2.03974511 C8.70905288,1.78874229 8.85096497,1.62458742 9.00267347,1.49272532 C9.21982753,1.30288303 9.44092736,1.13407996 9.66039446,0.955491205" id="Fill-8" fill="#7EB078"></path>
                    <path d="M15.3284099,3.88601971 C15.301042,4.10472252 15.2226755,4.2909556 15.0908922,4.45418472 C14.9680117,4.60530649 14.848978,4.76083093 14.7101604,4.89742387 C14.2668893,5.33604021 14.2035806,5.85511541 14.3900996,6.41689654 C14.4852825,6.70450119 14.6091522,6.98385081 14.7406058,7.25681657 C14.914485,7.61574452 15.1118852,7.96399599 15.1857454,8.362548 C15.2449874,8.68075123 15.1156222,8.8165737 14.7979793,8.78784626 C14.4878104,8.76043962 14.2029211,8.66226 13.9459491,8.4919866 C13.6390776,8.28726229 13.32737,8.08705071 13.0363256,7.8600929 C12.6144871,7.53165346 12.168688,7.52328838 11.7184925,7.74903546 C11.4364609,7.89190221 11.17817,8.08572991 10.921198,8.27317373 C10.6942318,8.43838405 10.4652871,8.57299579 10.173913,8.57552733 C9.89089218,8.57805887 9.7703198,8.44278673 9.8581387,8.16993104 C9.91386358,7.99580531 9.99530765,7.82619231 10.0906005,7.67066787 C10.2631608,7.38999744 10.4560546,7.12286523 10.6381772,6.84868874 C10.7671028,6.65409057 10.852064,6.44375285 10.8709687,6.20909036 C10.8944897,5.91565217 10.827334,5.6530327 10.6178436,5.43873257 C10.5376086,5.35640258 10.4575934,5.27044038 10.3637294,5.20660161 C9.77218829,4.80617846 9.7903236,3.85211913 10.1602841,3.40645851 C10.4229714,3.08891569 10.7645748,2.98237099 11.1551986,2.98941527 C11.542525,2.99700988 11.8726977,3.13613436 12.1359346,3.42946248 C12.2658494,3.57353997 12.4071949,3.70804164 12.545463,3.84518492 C12.7624273,4.06069578 12.999945,4.07665547 13.2397709,3.88216737 C13.48784,3.6812954 13.7230496,3.46446373 13.9727674,3.26425216 C14.3980131,2.92502617 15.0036228,3.03850508 15.2239944,3.50210659 C15.2805986,3.62009824 15.2953267,3.75779185 15.3284099,3.88601971" id="Fill-9" fill="#DF5692"></path>
                    <path d="M21.9369195,13.2937624 C21.9273573,14.3376363 20.9658557,14.650116 20.2315402,14.5288224 C19.0147154,14.5632733 19.009,14.5447821 18.0111179,15.2468984 C17.4978335,15.7730179 16.6229418,16.1912719 15.9620469,15.3909759 C15.4856925,14.7533587 15.3225846,14.4134723 15.1494748,14.0633497 C14.9965885,13.7069533 14.8349094,13.3403207 14.8157849,12.5106369 C14.848978,11.4265886 15.9391854,11.2748064 16.6561349,11.3608787 C17.8621885,11.2907661 17.8621885,11.2907661 18.8338019,10.5541988 C19.3304897,10.0083774 20.301004,9.5059223 20.9989389,10.3310934 C21.4828771,11.0031615 21.5899305,11.3820115 21.7069857,11.7505153 C21.8031578,12.1260633 21.9095517,12.4914852 21.9369195,13.2937624" id="Fill-10" fill="#7EB078"></path>
                    <path d="M20.9689332,19.9829643 C20.2971571,20.4446947 19.4528207,20.3879002 18.8236901,19.956218 C17.7915157,19.2483782 17.8181142,19.229887 16.7865993,18.5213868 C16.1581281,18.090365 15.9957896,17.4921518 16.6681152,17.0311919 C17.7883283,16.2614945 17.6914967,16.1951242 18.8115998,15.4260872 C19.483376,14.9650172 20.4449874,15.1480584 21.0733487,15.5797405 C22.1049735,16.2875803 22.1056329,16.2869199 23.1372577,16.9955302 C23.7658388,17.4271023 23.9599417,18.0380833 23.2875061,18.4998137 C22.1356386,19.2465071 22.0891463,19.2140374 20.9689332,19.9829643" id="Fill-11" fill="#00A157"></path>
                    <path d="M22.6239733,6.12356842 C22.0508973,6.12422883 21.611473,6.59674575 21.6179578,7.20574556 C21.6242227,7.73692811 22.0495783,8.1654183 22.5744034,8.16927064 C23.1575913,8.17246258 23.5880028,7.71392414 23.5829469,7.09611899 C23.577891,6.54325327 23.1639661,6.12290802 22.6239733,6.12356842 M25.1253281,6.82953711 C25.1188434,8.39380698 24.3985965,9.4235923 23.2174928,9.790335 C22.2215891,10.0995127 20.504779,9.74113513 19.8138784,8.49704968 C18.7785166,6.63185707 20.1080003,4.31131797 22.2407136,4.29216634 C22.9098518,4.28578246 23.5448078,4.41202912 24.0987593,4.8093704 C24.871104,5.36410726 25.1240092,6.16187168 25.1253281,6.82953711" id="Fill-12" fill="#2BB5BD"></path>
                    <path d="M6.05939422,21.1569372 C5.66624252,21.1741076 5.33826806,20.9726853 5.16955465,20.516128 C5.05623639,20.2087114 4.93071801,19.9044866 4.80245186,19.6029035 C4.65561075,19.2604856 4.46205745,19.2349501 4.21376847,19.521344 C3.92536197,19.8529754 3.67762254,20.2317153 3.34701021,20.5141468 C2.6883135,21.0752676 1.82650124,20.8209031 1.62107755,20.0231387 C1.5676608,19.8172036 1.60195303,19.5754969 1.64723637,19.3613068 C1.68229799,19.1973072 1.78352603,19.040572 1.88057746,18.8977053 C2.14326478,18.5156633 2.12381053,18.1560749 1.84331762,17.7950557 C1.58513665,17.462874 1.31255733,17.1388372 1.08691002,16.7856328 C0.885662954,16.4699611 0.684635708,16.1351378 0.582858109,15.7806125 C0.430301621,15.246238 0.856646446,14.8681584 1.36795248,15.0843297 C1.68889265,15.2201522 1.97191351,15.4611985 2.24636131,15.6856248 C2.68963243,16.0491756 2.87801991,16.00702 3.05486673,15.4650509 C3.1213629,15.2603266 3.17741751,15.0524103 3.25061825,14.8503276 C3.29875927,14.7157158 3.35536345,14.5817645 3.42988311,14.460691 C3.60530109,14.1730863 3.83677369,13.9722144 4.20640443,14.022625 C4.59395067,14.0754571 4.74518822,14.3561275 4.84542707,14.6864381 C4.96995625,15.096437 5.06261123,15.5205246 5.22626873,15.9152242 C5.41795354,16.3756338 5.61436452,16.4642376 6.10335863,16.3475668 C6.49980766,16.2525791 6.88438629,16.1085016 7.27248209,15.9822549 C7.57429773,15.8846256 7.870398,15.7672944 8.17551098,15.684304 C8.41610619,15.6187042 8.65626176,15.656347 8.80749931,15.8826444 C8.96192429,16.1129043 8.99665617,16.3909331 8.82882205,16.606444 C8.63779671,16.8520031 8.39258523,17.0636616 8.14297732,17.2529766 C7.85863753,17.4692579 7.53967576,17.6401917 7.24159709,17.8390825 C6.940331,18.0406148 6.80481072,18.3238168 6.87317537,18.6865971 C6.94099047,19.0494875 7.0460654,19.4072047 7.0859631,19.7718561 C7.1139904,20.0308434 7.09970197,20.3082118 7.03628332,20.5600447 C6.93406607,20.9649806 6.60938894,21.1575976 6.05939422,21.1569372" id="Fill-13" fill="#ECB691"></path>
                    <path d="M18.698941,6.87664572 C19.2025533,8.05447093 18.8631481,9.50074916 17.8748283,10.2277406 C17.5844434,10.4413803 17.2635032,10.5886498 16.8866183,10.5439626 C16.3925683,10.4840863 16.0881148,10.137816 16.1198791,9.63976357 C16.1346072,9.41665809 16.1861554,9.19531369 16.2269324,8.97462968 C16.2536408,8.83891727 16.2930989,8.70496593 16.3224451,8.56980386 C16.510283,7.70632953 16.4154298,7.49775287 15.6322039,7.09920086 C15.3195071,6.93982408 15.0335186,6.756893 14.8438122,6.44947633 C14.6515779,6.13765698 14.7063135,5.84939194 15.0297817,5.68616282 C15.2112447,5.59491741 15.4194162,5.51776056 15.6181353,5.50950555 C16.535013,5.47120229 17.3877026,5.70333324 18.128393,6.25300702 C18.3511826,6.41821734 18.5104437,6.66630799 18.698941,6.87664572" id="Fill-14" fill="#E9823A"></path>
                    <path d="M4.2506619,4.14812011 C4.88600212,3.6122731 5.85016362,3.54567992 6.49306084,4.01602844 C6.68198562,4.15341107 6.83644315,4.32363418 6.88012624,4.56574142 C6.93929196,4.88173973 6.78299126,5.13442891 6.46688784,5.20941465 C6.32588544,5.24426203 6.17806332,5.25374928 6.03282163,5.27071686 C5.94305932,5.2802041 5.85237542,5.28129879 5.76261311,5.28969135 C5.18975631,5.3394994 5.07824461,5.43765592 4.9820312,5.99594392 C4.94240308,6.21889422 4.88489622,6.43016791 4.72933279,6.60568199 C4.57321641,6.78429766 4.38392299,6.80546151 4.21859076,6.63633309 C4.12790687,6.54237286 4.03906614,6.42925568 3.99538304,6.30756349 C3.79447767,5.74945794 3.77383418,5.1809529 3.97234344,4.61865107 C4.03279937,4.45043488 4.1566603,4.30465968 4.2506619,4.14812011" id="Fill-15" fill="#622659"></path>
                    <path d="M8.88641542,26.9050676 C7.69849718,26.4286983 6.91659022,25.1660116 7.10244975,23.9519744 C7.15718543,23.5953578 7.27973621,23.2639466 7.57847435,23.0285136 C7.97041703,22.7205466 8.42951533,22.7505949 8.75814927,23.1248221 C8.90608949,23.2931143 9.02556277,23.4857313 9.15250999,23.671304 C9.23021707,23.7854433 9.29583395,23.9079477 9.37101308,24.0252789 C9.84769715,24.7687804 10.0629029,24.8484688 10.8973473,24.5762735 C11.2308174,24.4670872 11.5617594,24.3937827 11.9139143,24.4767731 C12.270026,24.5608641 12.4352223,24.8038917 12.3209148,25.1488412 C12.2569466,25.3414581 12.1646213,25.5429905 12.0295407,25.6902599 C11.4081038,26.3668408 10.6426835,26.8061175 9.7294329,26.9420501 C9.45630403,26.9828849 9.16822726,26.9202568 8.88641542,26.9050676" id="Fill-16" fill="#513727"></path>
                    <path d="M12.5017184,22.5929792 C12.2324364,23.4023006 11.5224113,23.6744959 10.7671028,23.4220026 C9.52774619,23.0074909 9.537858,22.9756816 8.29839149,22.5611699 C7.54341274,22.3092269 7.06453045,21.6748016 7.33403225,20.8662506 C7.78312866,19.518152 7.66662298,19.4791884 8.11593921,18.1305394 C8.38533111,17.3218784 9.26220118,17.1510547 10.0173998,17.403548 C11.2568663,17.8180597 11.2575257,17.8173993 12.4968823,18.231911 C13.2521908,18.4837439 13.7634969,19.1201504 13.494105,19.9294718 C13.0069793,21.2646926 12.9509247,21.245651 12.5017184,22.5929792" id="Fill-17" fill="#E9823A"></path>
                    <g id="Group-21" transform="translate(11.430745, 1.100668)">
                        <mask id="mask-2" fill="white">
                            <use xlink:href="#path-1"></use>
                        </mask>
                        <g id="Clip-19"></g>
                        <path d="M8.3353216,4.03582068 C7.58144195,4.93110432 6.70841876,4.73595582 6.36384773,3.71948859 C5.95376974,2.71843072 5.78186891,2.80318218 5.32343007,1.74400902 C4.87829046,0.670747299 5.51951132,-0.040284462 6.60839974,0.115350044 C7.89974425,0.335373649 7.90875695,0.304114668 9.20273932,0.524688608 C10.26415,0.700135144 10.5672846,1.61005768 9.78087126,2.40396977 C9.00138234,3.1857745 9.05238105,3.18456377 8.3353216,4.03582068" id="Fill-18" fill="#ECB691" mask="url(#mask-2)"></path>
                        <path d="M0.96779344,25.3053365 C1.33002109,24.5984707 1.86923039,24.6364683 2.17282799,25.3031548 C2.51431682,25.9511151 2.60771947,25.8731199 2.98320125,26.5556236 C3.35228986,27.2497629 3.03871267,27.8164555 2.3747586,27.8302728 C1.58387671,27.8228187 1.58153774,27.84609 0.78972027,27.8386359 C0.140579635,27.8364542 -0.127777567,27.2403089 0.263453241,26.6008935 C0.652812877,25.9698412 0.622718199,25.9772953 0.96779344,25.3053365" id="Fill-20" fill="#ECB691" mask="url(#mask-2)"></path>
                    </g>
                    <path d="M15.6245102,26.9726486 C14.1582972,26.9770513 13.054351,26.0881516 12.7781446,24.7872716 C12.4968823,23.46724 13.4967428,22.3124188 14.5968422,22.0975683 C15.9582,21.8323073 17.3386823,22.6523052 17.7264484,23.9889569 C17.9175836,24.6463861 17.8588912,25.3012837 17.5807064,25.9205198 C17.2750439,26.6015033 16.6789964,26.8698462 15.9785335,26.9548178 C15.8460908,26.9706674 15.7117795,26.9681359 15.6245102,26.9726486" id="Fill-22" fill="#FAEF5C"></path>
                    <path d="M27.3183826,11.3602183 C27.3183826,11.3602183 27.6061297,9.66595948 26.3255564,9.3758233 C25.0456427,9.08502672 24.9177062,9.27445174 24.5769821,9.82731746 C24.2363679,10.3795228 23.9433451,10.3985643 23.1856186,10.2850854 C22.4309695,10.1722669 21.3898924,10.9693709 22.2781932,12.066187 C23.3581789,13.3995366 26.5402126,15.0377714 27.3183826,11.3602183" id="Fill-23" fill="#F9DDC7"></path>
                    <path d="M25.3150346,14.6564999 C25.9524085,15.0900532 26.5566993,15.5581674 27.0075543,16.2040396 C27.1234005,16.3699103 27.2311133,16.5471179 27.3093699,16.7372034 C27.4762148,17.1421392 27.3132168,17.4080607 26.8763205,17.4660659 C26.485477,17.5183477 26.1084822,17.459572 25.749293,17.3487347 C24.6311682,17.0024644 23.6690072,16.3997384 22.8601721,15.5568466 C22.7359726,15.4267476 22.6411194,15.2616474 22.5564879,15.0983082 C22.2367568,14.4829245 22.8213735,13.8026014 23.3771935,13.8147087 C23.6848344,13.8210926 23.9586227,13.9243353 24.2179028,14.0576262 C24.5890723,14.2470513 24.9494705,14.4555178 25.3150346,14.6564999" id="Fill-24" fill="#E9823A"></path>
                    <path d="M4.45128617,8.99763365 C4.37390882,9.09262133 4.2819133,9.15712049 4.17167255,9.19465328 C4.06912557,9.2297646 3.96767771,9.26740746 3.86260278,9.29096177 C3.52407685,9.36624748 3.34162457,9.59133416 3.26325802,9.91074812 C3.22358014,10.0740873 3.19863034,10.2423795 3.18049502,10.409461 C3.15642451,10.6294846 3.14653252,10.85259 3.06365961,11.0611667 C2.99771301,11.2282481 2.89681469,11.2537837 2.75546913,11.1465786 C2.61764072,11.0426755 2.51289552,10.9120261 2.44255247,10.7550708 C2.35814081,10.5682874 2.27098138,10.3813939 2.20052842,10.1895474 C2.09930037,9.91008772 1.8920082,9.77371491 1.61382342,9.74696867 C1.438955,9.73034858 1.2603496,9.74498746 1.08427216,9.75709482 C0.928308427,9.76788137 0.780807846,9.76413909 0.643309167,9.67927756 C0.508997907,9.5958469 0.492731077,9.49700688 0.614732303,9.39431452 C0.691670013,9.32926502 0.780258291,9.27379134 0.870934878,9.2284438 C1.03459238,9.14754468 1.20462472,9.07864284 1.3711399,9.00401752 C1.48896451,8.95107538 1.59085202,8.87645006 1.66910866,8.77122617 C1.76692947,8.64057683 1.81243263,8.49704968 1.77737101,8.33448096 C1.76374205,8.2726234 1.75187166,8.2075739 1.72648221,8.15011901 C1.5666716,7.78667832 1.8560673,7.34354924 2.1614001,7.24272801 C2.37913382,7.17129464 2.57092854,7.22236565 2.75261144,7.34156803 C2.93297542,7.45955968 3.04684323,7.6227888 3.08465262,7.83829966 C3.10289785,7.94484436 3.12960622,8.05006826 3.15444611,8.15595255 C3.19302488,8.32105281 3.29996829,8.39820966 3.47000063,8.37839763 C3.64607808,8.35682453 3.82083659,8.32490515 3.99691404,8.30454278 C4.29752066,8.2706422 4.54877724,8.50343355 4.51591385,8.78652546 C4.50767052,8.85795883 4.47359811,8.92752107 4.45128617,8.99763365" id="Fill-25" fill="#FAEF5C"></path>
                    <g id="Group-29" transform="translate(0.000000, 11.777151)">
                        <path d="M5.63920441,12.7053451 C5.13075606,12.9706062 4.72947095,12.5848219 4.59834711,12.1970564 C4.26586629,11.6149129 4.27334024,11.6066579 3.67443512,11.3044144 C3.28655915,11.1908254 2.85669717,10.8738329 3.07333178,10.345292 C3.25853184,9.94861111 3.38119253,9.78097932 3.50572171,9.60685359 C3.63871404,9.43977213 3.77434423,9.26564639 4.17134282,9.04122011 C4.70540044,8.77595904 5.06162203,9.2669672 5.20615502,9.63745217 C5.55259453,10.2056172 5.55314409,10.2056172 6.16172138,10.4861775 C6.55553254,10.5868887 7.05035193,10.9274355 6.83184883,11.4809616 C6.6309315,11.8910706 6.47584705,12.0408716 6.32713745,12.1933142 C6.1699647,12.3373917 6.02059563,12.4840007 5.63920441,12.7053451" id="Fill-26" fill="#00A157"></path>
                        <path d="M2.28329141,2.88250203 C1.95927374,3.1559671 1.5517237,3.12215589 1.24858912,2.86681362 C0.75091205,2.44674315 0.763991461,2.43659978 0.266644121,2.01666455 C-0.0367102788,1.76118704 -0.114747099,1.4069808 0.209380482,1.13351573 C0.749593118,0.677470128 0.702880937,0.6375729 1.24287375,0.182338763 C1.5676608,-0.0911263066 2.03060599,0.0170695666 2.33363066,0.273223297 C2.83130773,0.693293775 2.8319672,0.693293775 3.32920462,1.11241754 C3.63266894,1.36789504 3.72565365,1.73062171 3.40185581,2.00327531 C2.84625563,2.44593168 2.82394369,2.42726789 2.28329141,2.88250203" id="Fill-28" fill="#DA3434"></path>
                    </g>
                    <path d="M20.031428,27.945513 C19.8352532,28.3591201 19.487801,28.5196914 19.1666507,28.4182406 C18.6374311,28.2524667 18.6453049,28.235913 18.1182632,28.070139 C17.7961076,27.9689247 17.6349461,27.6685925 17.8309534,27.2549854 C18.1561244,26.5644579 18.1056986,26.5495595 18.4318748,25.8587955 C18.627882,25.4451884 19.0421777,25.3300216 19.3645007,25.4312359 C19.8915424,25.5970098 19.8915424,25.5970098 20.4195893,25.7630202 C20.7417448,25.8628157 20.9184864,26.1657492 20.7224792,26.5795927 C20.3808905,27.2630258 20.3574366,27.2549854 20.031428,27.945513" id="Fill-30" fill="#622659"></path>
                    <g id="Group-34" transform="translate(11.101012, 0.000000)">
                        <path d="M4.7838769,19.6309705 C4.46425567,19.6309705 4.21981357,19.8950209 4.22421001,20.2336965 C4.22673797,20.5294461 4.46425567,20.767961 4.75650906,20.7699422 C5.08074655,20.7723636 5.32068229,20.5174488 5.31815434,20.1723893 C5.31562639,19.8649726 5.08448352,19.6309705 4.7838769,19.6309705 M6.17655936,20.0244595 C6.17337194,20.8955284 5.77164719,21.4687565 5.11371985,21.6729305 C4.55910888,21.8456254 3.60398216,21.6454138 3.21907379,20.9529833 C2.64182114,19.9147228 3.38262138,18.622208 4.57064953,18.6113114 C4.94313796,18.6082295 5.29650187,18.6776817 5.60469235,18.898916 C6.0352138,19.2088642 6.1758999,19.6526537 6.17655936,20.0244595" id="Fill-31" fill="#7EC8C7"></path>
                        <path d="M1.81496058,1.10892337 C1.49555917,1.10892337 1.25111708,1.37286365 1.25485405,1.7115393 C1.25804147,2.00739896 1.49555917,2.24591379 1.78759274,2.24778493 C2.11172032,2.25031646 2.35176597,1.9952916 2.34890829,1.65034214 C2.34638033,1.34292547 2.11545729,1.10892337 1.81496058,1.10892337 M3.20797278,1.50230225 C3.20434571,2.37337119 2.80295069,2.94670934 2.14480353,3.15066318 C1.59085202,3.32357818 0.634626197,3.12325654 0.250047558,2.43082607 C-0.32720509,1.39267568 0.413814969,0.100050754 1.6016233,0.089264204 C1.97422164,0.0860722658 2.32758555,0.155634506 2.63599586,0.376868847 C3.06618757,0.686046589 3.20731331,1.13060654 3.20797278,1.50230225" id="Fill-33" fill="#ECB691"></path>
                    </g>
                    <path d="M21.2351377,25.1820814 C20.9856397,25.1922075 20.7773583,25.0639796 20.6697554,24.7745039 C20.5976538,24.5793554 20.5188476,24.3861881 20.4372937,24.1948919 C20.3437594,23.9773998 20.220769,23.9615502 20.0634863,24.1425001 C19.8800448,24.3536083 19.7227621,24.5941043 19.5126123,24.7732931 C19.0949504,25.1303499 18.5480332,24.9684416 18.4167995,24.4614738 C18.3830568,24.3307144 18.4052588,24.1777215 18.4340555,24.0417889 C18.4555981,23.9372254 18.519896,23.8378351 18.5817759,23.74714 C18.7485109,23.5048829 18.7365306,23.2766043 18.5588045,23.0470049 C18.3944875,22.8358967 18.2212678,22.630622 18.0780537,22.4061958 C17.9500074,22.2058741 17.8226205,21.9930048 17.7583226,21.7679182 C17.6609414,21.4292425 17.9320919,21.1888565 18.2568789,21.3265502 C18.4601044,21.4120721 18.6403585,21.5657254 18.8141278,21.7079317 C19.0956099,21.938852 19.2159625,21.9119957 19.3267528,21.5675965 C19.3699478,21.4381579 19.4057788,21.3055274 19.4516117,21.1767492 C19.482057,21.0918877 19.5184376,21.0071362 19.5649299,20.9299793 C19.6769293,20.7475986 19.8239902,20.6200311 20.0590899,20.6519505 C20.3048509,20.685741 20.4003636,20.863609 20.4641119,21.0733964 C20.5429181,21.3337045 20.6015007,21.6027078 20.7060261,21.85322 C20.8275877,22.1461078 20.953106,22.2021318 21.263165,22.1281669 C21.5140919,22.0681805 21.7586439,21.9763848 22.0050644,21.8966964 C22.1972987,21.8347287 22.3845871,21.7595531 22.5781404,21.7072713 C22.7315762,21.6651157 22.8838029,21.6894405 22.9798651,21.8328576 C23.0780157,21.9789163 23.1003276,22.1554635 22.9932743,22.2920564 C22.8723722,22.4483513 22.716958,22.582853 22.5576969,22.7033762 C22.3768933,22.8404094 22.1744372,22.9488253 21.9859398,23.075182 C21.7949145,23.2026394 21.7083046,23.3824886 21.7514997,23.6132987 C21.7949145,23.8428982 21.8610809,24.0705164 21.8865803,24.3019869 C21.9043859,24.4665369 21.8954831,24.6431941 21.8554755,24.8032313 C21.7910676,25.0602374 21.5841052,25.1826317 21.2351377,25.1820814" id="Fill-35" fill="#B6B636"></path>
                    <path d="M25.4462683,20.7061034 C24.7266809,21.5133336 23.5002938,21.771 22.5908901,21.2737181 C22.3233667,21.1276594 22.0967301,20.9338317 21.9960517,20.6282861 C21.8649278,20.2290737 22.021551,19.8720169 22.4125045,19.719024 C22.5883621,19.6495718 22.7755406,19.6106082 22.9596415,19.5627291 C23.0723003,19.5334513 23.1893555,19.5169413 23.3034432,19.4907454 C24.0300649,19.3256451 24.1553634,19.1782656 24.1796538,18.4359749 C24.1891061,18.1401153 24.2273552,17.8550421 24.3948595,17.5993569 C24.563573,17.3403696 24.8037285,17.2786221 25.0443237,17.4692579 C25.1787449,17.5756925 25.3125066,17.7070023 25.3902137,17.8570233 C25.746765,18.5462619 25.8753609,19.2821687 25.7187377,20.0468031 C25.6729048,20.275632 25.5398026,20.4867402 25.4462683,20.7061034" id="Fill-36" fill="#00A157"></path>
                    <path d="M8.90608949,4.55236434 C8.76738179,4.96940758 8.40148803,5.1097428 8.0120733,4.9796438 C7.37316058,4.76600407 7.37821648,4.74938398 6.73919384,4.53574425 C6.35010885,4.40630565 6.10269916,4.07918701 6.24184651,3.66214377 C6.4733191,2.9670717 6.41319778,2.94670934 6.64467037,2.2515272 C6.78381772,1.83459402 7.23621145,1.74720096 7.62529644,1.87729996 C8.2645389,2.09082962 8.2645389,2.08961888 8.90367145,2.30325861 C9.29275644,2.43401801 9.55698252,2.76179705 9.41783518,3.17939063 C9.16624886,3.86752849 9.137672,3.85729227 8.90608949,4.55236434" id="Fill-37" fill="#A42351"></path>
                </g>
            </g>
        </g>
    </g>
</svg>